<svg width="40" height="40" viewBox="0 0 40 40" fill="none" xmlns="http://www.w3.org/2000/svg">
<path d="M36.6667 18.3333C36.6713 17.1586 36.3655 16.0035 35.7801 14.985C35.1948 13.9665 34.3507 13.1207 33.3333 12.5333C33.3584 12.245 33.3584 11.955 33.3333 11.6667C33.3333 10.3406 32.8065 9.06883 31.8689 8.13114C30.9312 7.19346 29.6594 6.66668 28.3333 6.66668H28.0333C27.7558 5.8972 27.2937 5.20757 26.6876 4.65825C26.0814 4.10894 25.3498 3.71673 24.5568 3.51602C23.7638 3.3153 22.9337 3.31221 22.1392 3.50701C21.3447 3.70181 20.6102 4.08856 20 4.63334C19.3898 4.08856 18.6553 3.70181 17.8608 3.50701C17.0663 3.31221 16.2362 3.3153 15.4432 3.51602C14.6502 3.71673 13.9186 4.10894 13.3124 4.65825C12.7063 5.20757 12.2442 5.8972 11.9667 6.66668H11.6667C10.3406 6.66668 9.06881 7.19346 8.13113 8.13114C7.19344 9.06883 6.66666 10.3406 6.66666 11.6667C6.64158 11.955 6.64158 12.245 6.66666 12.5333C5.72076 13.068 4.91988 13.8257 4.33373 14.7406C3.74758 15.6555 3.39392 16.6998 3.30356 17.7826C3.21319 18.8654 3.38884 19.9538 3.81523 20.9532C4.24161 21.9526 4.90581 22.8326 5.74999 23.5167C5.20378 24.5355 4.93185 25.6787 4.9609 26.8343C4.98995 27.9899 5.31898 29.1181 5.9157 30.1082C6.51241 31.0982 7.3563 31.9161 8.36454 32.4815C9.37278 33.0469 10.5107 33.3405 11.6667 33.3333H11.9667C12.2442 34.1028 12.7063 34.7925 13.3124 35.3418C13.9186 35.8911 14.6502 36.2833 15.4432 36.484C16.2362 36.6847 17.0663 36.6878 17.8608 36.493C18.6553 36.2982 19.3898 35.9115 20 35.3667C20.6102 35.9115 21.3447 36.2982 22.1392 36.493C22.9337 36.6878 23.7638 36.6847 24.5568 36.484C25.3498 36.2833 26.0814 35.8911 26.6876 35.3418C27.2937 34.7925 27.7558 34.1028 28.0333 33.3333H28.3333C29.4822 33.3261 30.6097 33.022 31.6065 32.4507C32.6033 31.8794 33.4354 31.0601 34.0224 30.0724C34.6093 29.0847 34.931 27.9621 34.9562 26.8135C34.9815 25.6649 34.7095 24.5292 34.1667 23.5167C34.944 22.8943 35.5721 22.1056 36.0047 21.2087C36.4374 20.3117 36.6635 19.3292 36.6667 18.3333ZM18.3333 14.25C17.9703 14.0424 17.5913 13.864 17.2 13.7167C16.7801 13.5752 16.3211 13.6064 15.9242 13.8033C15.5272 14.0002 15.2248 14.3468 15.0833 14.7667C14.9419 15.1866 14.973 15.6455 15.17 16.0425C15.3669 16.4394 15.7134 16.7419 16.1333 16.8833C16.7749 17.1153 17.3299 17.5385 17.7233 18.0958C18.1167 18.6532 18.3296 19.3178 18.3333 20V22.5833C17.9703 22.3757 17.5913 22.1974 17.2 22.05C16.7801 21.9086 16.3211 21.9397 15.9242 22.1366C15.5272 22.3335 15.2248 22.6801 15.0833 23.1C14.9419 23.5199 14.973 23.9789 15.17 24.3758C15.3669 24.7728 15.7134 25.0752 16.1333 25.2167C16.7749 25.4486 17.3299 25.8718 17.7233 26.4292C18.1167 26.9865 18.3296 27.6511 18.3333 28.3333V31.6667C18.3333 32.1087 18.1577 32.5326 17.8452 32.8452C17.5326 33.1578 17.1087 33.3333 16.6667 33.3333C16.3442 33.3312 16.0293 33.2356 15.7601 33.0582C15.4909 32.8807 15.279 32.6289 15.15 32.3333C15.4295 32.1694 15.6968 31.9856 15.95 31.7833C16.1185 31.6433 16.2578 31.4714 16.3599 31.2775C16.462 31.0836 16.5249 30.8714 16.545 30.6532C16.5651 30.435 16.5421 30.215 16.4772 30.0056C16.4122 29.7963 16.3067 29.6019 16.1667 29.4333C16.0266 29.2648 15.8547 29.1255 15.6608 29.0234C15.4669 28.9213 15.2548 28.8584 15.0365 28.8383C14.8183 28.8182 14.5983 28.8412 14.389 28.9062C14.1797 28.9711 13.9852 29.0766 13.8167 29.2167C13.2149 29.7233 12.4533 30.0008 11.6667 30C10.7826 30 9.93476 29.6488 9.30964 29.0237C8.68452 28.3986 8.33333 27.5507 8.33333 26.6667C8.3413 26.0393 8.52617 25.427 8.86666 24.9C9.2407 24.9671 9.61999 25.0006 9.99999 25C10.442 25 10.8659 24.8244 11.1785 24.5119C11.4911 24.1993 11.6667 23.7754 11.6667 23.3333C11.6667 22.8913 11.4911 22.4674 11.1785 22.1548C10.8659 21.8423 10.442 21.6667 9.99999 21.6667C9.60631 21.6689 9.21587 21.5954 8.84999 21.45C8.25057 21.2338 7.72567 20.8503 7.33748 20.345C6.94929 19.8397 6.71408 19.2337 6.65971 18.5988C6.60534 17.9639 6.73409 17.3267 7.03071 16.7627C7.32733 16.1988 7.77939 15.7316 8.33333 15.4167C8.57016 15.6346 8.82683 15.8299 9.09999 16C9.48456 16.221 9.94117 16.2802 10.3694 16.1646C10.7976 16.0489 11.1623 15.7679 11.3833 15.3833C11.6043 14.9988 11.6635 14.5422 11.5479 14.114C11.4322 13.6858 11.1512 13.321 10.7667 13.1C10.532 12.9706 10.3364 12.7807 10.2 12.55C10.0459 12.2824 9.9762 11.9745 9.99999 11.6667C9.99999 11.2246 10.1756 10.8007 10.4881 10.4882C10.8007 10.1756 11.2246 10 11.6667 10C11.7828 9.98381 11.9006 9.98381 12.0167 10C12.1049 10.2678 12.2107 10.5295 12.3333 10.7833C12.4422 10.9743 12.5878 11.1419 12.7617 11.2763C12.9356 11.4108 13.1344 11.5096 13.3467 11.5669C13.5589 11.6242 13.7804 11.639 13.9983 11.6103C14.2163 11.5817 14.4264 11.5102 14.6167 11.4C14.9862 11.1777 15.2551 10.8208 15.367 10.4043C15.4789 9.98787 15.425 9.54424 15.2167 9.16668C15.0768 8.91102 15.0024 8.62474 15 8.33334C15 7.89132 15.1756 7.46739 15.4881 7.15483C15.8007 6.84227 16.2246 6.66668 16.6667 6.66668C17.1087 6.66668 17.5326 6.84227 17.8452 7.15483C18.1577 7.46739 18.3333 7.89132 18.3333 8.33334V14.25ZM31.15 21.45C30.7841 21.5954 30.3937 21.6689 30 21.6667C29.558 21.6667 29.134 21.8423 28.8215 22.1548C28.5089 22.4674 28.3333 22.8913 28.3333 23.3333C28.3333 23.7754 28.5089 24.1993 28.8215 24.5119C29.134 24.8244 29.558 25 30 25C30.38 25.0006 30.7593 24.9671 31.1333 24.9C31.4738 25.427 31.6587 26.0393 31.6667 26.6667C31.6667 27.5507 31.3155 28.3986 30.6903 29.0237C30.0652 29.6488 29.2174 30 28.3333 30C27.5467 30.0008 26.7851 29.7233 26.1833 29.2167C25.843 28.9338 25.4042 28.7977 24.9635 28.8383C24.5227 28.8789 24.1162 29.093 23.8333 29.4333C23.5504 29.7737 23.4143 30.2125 23.455 30.6532C23.4956 31.0939 23.7096 31.5004 24.05 31.7833C24.3032 31.9856 24.5705 32.1694 24.85 32.3333C24.721 32.6289 24.5091 32.8807 24.2399 33.0582C23.9707 33.2356 23.6558 33.3312 23.3333 33.3333C22.8913 33.3333 22.4674 33.1578 22.1548 32.8452C21.8423 32.5326 21.6667 32.1087 21.6667 31.6667V28.3333C21.6704 27.6511 21.8833 26.9865 22.2767 26.4292C22.6701 25.8718 23.2251 25.4486 23.8667 25.2167C24.2866 25.0752 24.6331 24.7728 24.83 24.3758C25.0269 23.9789 25.0581 23.5199 24.9167 23.1C24.7752 22.6801 24.4727 22.3335 24.0758 22.1366C23.6788 21.9397 23.2199 21.9086 22.8 22.05C22.4086 22.1974 22.0297 22.3757 21.6667 22.5833V20C21.6704 19.3178 21.8833 18.6532 22.2767 18.0958C22.6701 17.5385 23.2251 17.1153 23.8667 16.8833C24.2866 16.7419 24.6331 16.4394 24.83 16.0425C25.0269 15.6455 25.0581 15.1866 24.9167 14.7667C24.7752 14.3468 24.4727 14.0002 24.0758 13.8033C23.6788 13.6064 23.2199 13.5752 22.8 13.7167C22.4086 13.864 22.0297 14.0424 21.6667 14.25V8.33334C21.6667 7.89132 21.8423 7.46739 22.1548 7.15483C22.4674 6.84227 22.8913 6.66668 23.3333 6.66668C23.7754 6.66668 24.1993 6.84227 24.5118 7.15483C24.8244 7.46739 25 7.89132 25 8.33334C24.9976 8.62474 24.9232 8.91102 24.7833 9.16668C24.6724 9.35591 24.6 9.56516 24.5701 9.78244C24.5403 9.99973 24.5536 10.2208 24.6093 10.4329C24.6651 10.645 24.7621 10.8441 24.895 11.0186C25.0278 11.1931 25.1937 11.3397 25.3833 11.45C25.5735 11.5602 25.7837 11.6317 26.0017 11.6603C26.2196 11.689 26.4411 11.6742 26.6533 11.6169C26.8656 11.5596 27.0644 11.4608 27.2383 11.3263C27.4122 11.1919 27.5578 11.0243 27.6667 10.8333C27.7914 10.5632 27.8972 10.2848 27.9833 10C28.0994 9.98381 28.2172 9.98381 28.3333 10C28.7754 10 29.1993 10.1756 29.5118 10.4882C29.8244 10.8007 30 11.2246 30 11.6667C29.9974 11.9934 29.8989 12.3122 29.7167 12.5833C29.5803 12.7996 29.391 12.9775 29.1667 13.1C28.7821 13.321 28.5011 13.6858 28.3854 14.114C28.2698 14.5422 28.329 14.9988 28.55 15.3833C28.771 15.7679 29.1357 16.0489 29.5639 16.1646C29.9922 16.2802 30.4488 16.221 30.8333 16C31.1326 15.8382 31.4122 15.6425 31.6667 15.4167C32.2225 15.7261 32.6782 16.188 32.9799 16.7481C33.2817 17.3081 33.4169 17.9428 33.3696 18.5771C33.3222 19.2115 33.0944 19.8191 32.7129 20.3282C32.3314 20.8372 31.8122 21.2265 31.2167 21.45H31.15Z" fill="#EDA708"/>
</svg>
