<svg width="1923" height="1170" viewBox="0 0 1923 1170" fill="none" xmlns="http://www.w3.org/2000/svg">
<path d="M46.7031 65.2338L92.5965 107.99V44.7511L46.7031 2V65.2338Z" stroke="#FBF9F7" stroke-opacity="0.05" stroke-miterlimit="10"/>
<path d="M46.7031 383.203L92.5965 425.959V362.72L46.7031 319.969V383.203Z" stroke="#FBF9F7" stroke-opacity="0.05" stroke-miterlimit="10"/>
<path d="M46.7031 701.281L92.5965 744.037V680.798L46.7031 638.047V701.281Z" stroke="#FBF9F7" stroke-opacity="0.05" stroke-miterlimit="10"/>
<path d="M46.7031 171.226L92.5965 213.982V150.743L46.7031 107.992V171.226Z" stroke="#FBF9F7" stroke-opacity="0.05" stroke-miterlimit="10"/>
<path d="M46.7031 489.195L92.5965 531.951V468.712L46.7031 425.961V489.195Z" stroke="#FBF9F7" stroke-opacity="0.05" stroke-miterlimit="10"/>
<path d="M46.7031 807.273L92.5965 850.029V786.79L46.7031 744.039V807.273Z" stroke="#FBF9F7" stroke-opacity="0.05" stroke-miterlimit="10"/>
<path d="M46.7031 1019.25L92.5965 1062.01V998.771L46.7031 956.02V1019.25Z" stroke="#FBF9F7" stroke-opacity="0.05" stroke-miterlimit="10"/>
<path d="M46.7031 277.214L92.5965 319.971V256.732L46.7031 213.98V277.214Z" stroke="#FBF9F7" stroke-opacity="0.05" stroke-miterlimit="10"/>
<path d="M46.7031 595.252L92.5965 638.052V574.748L46.7031 531.953V595.252Z" stroke="#FBF9F7" stroke-opacity="0.05" stroke-miterlimit="10"/>
<path d="M46.7031 913.265L92.5965 956.021V892.782L46.7031 850.031V913.265Z" stroke="#FBF9F7" stroke-opacity="0.05" stroke-miterlimit="10"/>
<path d="M46.7031 1125.24L92.5965 1168V1104.76L46.7031 1062.01V1125.24Z" stroke="#FBF9F7" stroke-opacity="0.05" stroke-miterlimit="10"/>
<path d="M1 44.7511V107.99L46.706 65.2338V2L1 44.7511Z" stroke="#FBF9F7" stroke-opacity="0.05" stroke-miterlimit="10"/>
<path d="M1 362.72V425.959L46.706 383.203V319.969L1 362.72Z" stroke="#FBF9F7" stroke-opacity="0.05" stroke-miterlimit="10"/>
<path d="M1 680.798V744.037L46.706 701.281V638.047L1 680.798Z" stroke="#FBF9F7" stroke-opacity="0.05" stroke-miterlimit="10"/>
<path d="M1 150.743V213.982L46.706 171.226V107.992L1 150.743Z" stroke="#FBF9F7" stroke-opacity="0.05" stroke-miterlimit="10"/>
<path d="M1 468.712V531.951L46.706 489.195V425.961L1 468.712Z" stroke="#FBF9F7" stroke-opacity="0.05" stroke-miterlimit="10"/>
<path d="M1 786.79V850.029L46.706 807.273V744.039L1 786.79Z" stroke="#FBF9F7" stroke-opacity="0.05" stroke-miterlimit="10"/>
<path d="M1 998.771V1062.01L46.706 1019.25V956.02L1 998.771Z" stroke="#FBF9F7" stroke-opacity="0.05" stroke-miterlimit="10"/>
<path d="M1 256.732V319.971L46.706 277.214V213.98L1 256.732Z" stroke="#FBF9F7" stroke-opacity="0.05" stroke-miterlimit="10"/>
<path d="M1 574.748V638.052L46.706 595.252V531.953L1 574.748Z" stroke="#FBF9F7" stroke-opacity="0.05" stroke-miterlimit="10"/>
<path d="M1 892.782V956.021L46.706 913.265V850.031L1 892.782Z" stroke="#FBF9F7" stroke-opacity="0.05" stroke-miterlimit="10"/>
<path d="M1 1104.76V1168L46.706 1125.25V1062.01L1 1104.76Z" stroke="#FBF9F7" stroke-opacity="0.05" stroke-miterlimit="10"/>
<path d="M778.379 65.2338L824.272 107.99V44.7511L778.379 2V65.2338Z" stroke="#FBF9F7" stroke-opacity="0.05" stroke-miterlimit="10"/>
<path d="M778.379 383.203L824.272 425.959V362.72L778.379 319.969V383.203Z" stroke="#FBF9F7" stroke-opacity="0.05" stroke-miterlimit="10"/>
<path d="M778.379 701.281L824.272 744.037V680.798L778.379 638.047V701.281Z" stroke="#FBF9F7" stroke-opacity="0.05" stroke-miterlimit="10"/>
<path d="M778.379 171.226L824.272 213.982V150.743L778.379 107.992V171.226Z" stroke="#FBF9F7" stroke-opacity="0.05" stroke-miterlimit="10"/>
<path d="M778.379 489.195L824.272 531.951V468.712L778.379 425.961V489.195Z" stroke="#FBF9F7" stroke-opacity="0.05" stroke-miterlimit="10"/>
<path d="M778.379 807.273L824.272 850.029V786.79L778.379 744.039V807.273Z" stroke="#FBF9F7" stroke-opacity="0.05" stroke-miterlimit="10"/>
<path d="M778.379 1019.25L824.272 1062.01V998.771L778.379 956.02V1019.25Z" stroke="#FBF9F7" stroke-opacity="0.05" stroke-miterlimit="10"/>
<path d="M778.379 277.214L824.272 319.971V256.732L778.379 213.98V277.214Z" stroke="#FBF9F7" stroke-opacity="0.05" stroke-miterlimit="10"/>
<path d="M778.379 595.252L824.272 638.052V574.748L778.379 531.953V595.252Z" stroke="#FBF9F7" stroke-opacity="0.05" stroke-miterlimit="10"/>
<path d="M778.379 913.265L824.272 956.021V892.782L778.379 850.031V913.265Z" stroke="#FBF9F7" stroke-opacity="0.05" stroke-miterlimit="10"/>
<path d="M778.379 1125.25L824.272 1168V1104.76L778.379 1062.01V1125.25Z" stroke="#FBF9F7" stroke-opacity="0.05" stroke-miterlimit="10"/>
<path d="M732.672 44.7511V107.99L778.378 65.2338V2L732.672 44.7511Z" stroke="#FBF9F7" stroke-opacity="0.05" stroke-miterlimit="10"/>
<path d="M732.672 362.72V425.959L778.378 383.203V319.969L732.672 362.72Z" stroke="#FBF9F7" stroke-opacity="0.05" stroke-miterlimit="10"/>
<path d="M732.672 680.798V744.037L778.378 701.281V638.047L732.672 680.798Z" stroke="#FBF9F7" stroke-opacity="0.05" stroke-miterlimit="10"/>
<path d="M732.672 150.743V213.982L778.378 171.226V107.992L732.672 150.743Z" stroke="#FBF9F7" stroke-opacity="0.05" stroke-miterlimit="10"/>
<path d="M732.672 468.712V531.951L778.378 489.195V425.961L732.672 468.712Z" stroke="#FBF9F7" stroke-opacity="0.05" stroke-miterlimit="10"/>
<path d="M732.672 786.79V850.029L778.378 807.273V744.039L732.672 786.79Z" stroke="#FBF9F7" stroke-opacity="0.05" stroke-miterlimit="10"/>
<path d="M732.672 998.771V1062.01L778.378 1019.25V956.02L732.672 998.771Z" stroke="#FBF9F7" stroke-opacity="0.05" stroke-miterlimit="10"/>
<path d="M732.672 256.732V319.971L778.378 277.214V213.98L732.672 256.732Z" stroke="#FBF9F7" stroke-opacity="0.05" stroke-miterlimit="10"/>
<path d="M732.672 574.748V638.052L778.378 595.252V531.953L732.672 574.748Z" stroke="#FBF9F7" stroke-opacity="0.05" stroke-miterlimit="10"/>
<path d="M732.672 892.782V956.021L778.378 913.265V850.031L732.672 892.782Z" stroke="#FBF9F7" stroke-opacity="0.05" stroke-miterlimit="10"/>
<path d="M732.672 1104.76V1168L778.378 1125.24V1062.01L732.672 1104.76Z" stroke="#FBF9F7" stroke-opacity="0.05" stroke-miterlimit="10"/>
<path d="M412.539 65.2338L458.432 107.99V44.7511L412.539 2V65.2338Z" stroke="#FBF9F7" stroke-opacity="0.05" stroke-miterlimit="10"/>
<path d="M412.539 383.203L458.432 425.959V362.72L412.539 319.969V383.203Z" stroke="#FBF9F7" stroke-opacity="0.05" stroke-miterlimit="10"/>
<path d="M412.539 701.281L458.432 744.037V680.798L412.539 638.047V701.281Z" stroke="#FBF9F7" stroke-opacity="0.05" stroke-miterlimit="10"/>
<path d="M412.539 171.226L458.432 213.982V150.743L412.539 107.992V171.226Z" stroke="#FBF9F7" stroke-opacity="0.05" stroke-miterlimit="10"/>
<path d="M412.539 489.195L458.432 531.951V468.712L412.539 425.961V489.195Z" stroke="#FBF9F7" stroke-opacity="0.05" stroke-miterlimit="10"/>
<path d="M412.539 807.273L458.432 850.029V786.79L412.539 744.039V807.273Z" stroke="#FBF9F7" stroke-opacity="0.05" stroke-miterlimit="10"/>
<path d="M412.539 1019.25L458.432 1062.01V998.771L412.539 956.02V1019.25Z" stroke="#FBF9F7" stroke-opacity="0.05" stroke-miterlimit="10"/>
<path d="M412.539 277.214L458.432 319.971V256.732L412.539 213.98V277.214Z" stroke="#FBF9F7" stroke-opacity="0.05" stroke-miterlimit="10"/>
<path d="M412.539 595.252L458.432 638.052V574.748L412.539 531.953V595.252Z" stroke="#FBF9F7" stroke-opacity="0.05" stroke-miterlimit="10"/>
<path d="M412.539 913.265L458.432 956.021V892.782L412.539 850.031V913.265Z" stroke="#FBF9F7" stroke-opacity="0.05" stroke-miterlimit="10"/>
<path d="M412.539 1125.24L458.432 1168V1104.76L412.539 1062.01V1125.24Z" stroke="#FBF9F7" stroke-opacity="0.05" stroke-miterlimit="10"/>
<path d="M366.836 44.7511V107.99L412.542 65.2338V2L366.836 44.7511Z" stroke="#FBF9F7" stroke-opacity="0.05" stroke-miterlimit="10"/>
<path d="M366.836 362.72V425.959L412.542 383.203V319.969L366.836 362.72Z" stroke="#FBF9F7" stroke-opacity="0.05" stroke-miterlimit="10"/>
<path d="M366.836 680.798V744.037L412.542 701.281V638.047L366.836 680.798Z" stroke="#FBF9F7" stroke-opacity="0.05" stroke-miterlimit="10"/>
<path d="M366.836 150.743V213.982L412.542 171.226V107.992L366.836 150.743Z" stroke="#FBF9F7" stroke-opacity="0.05" stroke-miterlimit="10"/>
<path d="M366.836 468.712V531.951L412.542 489.195V425.961L366.836 468.712Z" stroke="#FBF9F7" stroke-opacity="0.05" stroke-miterlimit="10"/>
<path d="M366.836 786.79V850.029L412.542 807.273V744.039L366.836 786.79Z" stroke="#FBF9F7" stroke-opacity="0.05" stroke-miterlimit="10"/>
<path d="M366.836 998.771V1062.01L412.542 1019.25V956.02L366.836 998.771Z" stroke="#FBF9F7" stroke-opacity="0.05" stroke-miterlimit="10"/>
<path d="M366.836 256.732V319.971L412.542 277.214V213.98L366.836 256.732Z" stroke="#FBF9F7" stroke-opacity="0.05" stroke-miterlimit="10"/>
<path d="M366.836 574.748V638.052L412.542 595.252V531.953L366.836 574.748Z" stroke="#FBF9F7" stroke-opacity="0.05" stroke-miterlimit="10"/>
<path d="M366.836 892.782V956.021L412.542 913.265V850.031L366.836 892.782Z" stroke="#FBF9F7" stroke-opacity="0.05" stroke-miterlimit="10"/>
<path d="M366.836 1104.76V1168L412.542 1125.25V1062.01L366.836 1104.76Z" stroke="#FBF9F7" stroke-opacity="0.05" stroke-miterlimit="10"/>
<path d="M1144.4 65.2338L1190.29 107.99V44.7511L1144.4 2V65.2338Z" stroke="#FBF9F7" stroke-opacity="0.05" stroke-miterlimit="10"/>
<path d="M1144.4 383.203L1190.29 425.959V362.72L1144.4 319.969V383.203Z" stroke="#FBF9F7" stroke-opacity="0.05" stroke-miterlimit="10"/>
<path d="M1144.4 701.281L1190.29 744.037V680.798L1144.4 638.047V701.281Z" stroke="#FBF9F7" stroke-opacity="0.05" stroke-miterlimit="10"/>
<path d="M1144.4 171.226L1190.29 213.982V150.743L1144.4 107.992V171.226Z" stroke="#FBF9F7" stroke-opacity="0.05" stroke-miterlimit="10"/>
<path d="M1144.4 489.195L1190.29 531.951V468.712L1144.4 425.961V489.195Z" stroke="#FBF9F7" stroke-opacity="0.05" stroke-miterlimit="10"/>
<path d="M1144.4 807.273L1190.29 850.029V786.79L1144.4 744.039V807.273Z" stroke="#FBF9F7" stroke-opacity="0.05" stroke-miterlimit="10"/>
<path d="M1144.4 1019.25L1190.29 1062.01V998.771L1144.4 956.02V1019.25Z" stroke="#FBF9F7" stroke-opacity="0.05" stroke-miterlimit="10"/>
<path d="M1144.4 277.214L1190.29 319.971V256.732L1144.4 213.98V277.214Z" stroke="#FBF9F7" stroke-opacity="0.05" stroke-miterlimit="10"/>
<path d="M1144.4 595.252L1190.29 638.052V574.748L1144.4 531.953V595.252Z" stroke="#FBF9F7" stroke-opacity="0.05" stroke-miterlimit="10"/>
<path d="M1144.4 913.265L1190.29 956.021V892.782L1144.4 850.031V913.265Z" stroke="#FBF9F7" stroke-opacity="0.05" stroke-miterlimit="10"/>
<path d="M1144.4 1125.24L1190.29 1168V1104.76L1144.4 1062.01V1125.24Z" stroke="#FBF9F7" stroke-opacity="0.05" stroke-miterlimit="10"/>
<path d="M1601.84 65.2338L1647.73 107.99V44.7511L1601.84 2V65.2338Z" stroke="#FBF9F7" stroke-opacity="0.05" stroke-miterlimit="10"/>
<path d="M1601.84 383.203L1647.73 425.959V362.72L1601.84 319.969V383.203Z" stroke="#FBF9F7" stroke-opacity="0.05" stroke-miterlimit="10"/>
<path d="M1601.84 701.281L1647.73 744.037V680.798L1601.84 638.047V701.281Z" stroke="#FBF9F7" stroke-opacity="0.05" stroke-miterlimit="10"/>
<path d="M1601.84 171.226L1647.73 213.982V150.743L1601.84 107.992V171.226Z" stroke="#FBF9F7" stroke-opacity="0.05" stroke-miterlimit="10"/>
<path d="M1601.84 489.195L1647.73 531.951V468.712L1601.84 425.961V489.195Z" stroke="#FBF9F7" stroke-opacity="0.05" stroke-miterlimit="10"/>
<path d="M1601.84 807.273L1647.73 850.029V786.79L1601.84 744.039V807.273Z" stroke="#FBF9F7" stroke-opacity="0.05" stroke-miterlimit="10"/>
<path d="M1601.84 1019.25L1647.73 1062.01V998.771L1601.84 956.02V1019.25Z" stroke="#FBF9F7" stroke-opacity="0.05" stroke-miterlimit="10"/>
<path d="M1601.84 277.214L1647.73 319.971V256.732L1601.84 213.98V277.214Z" stroke="#FBF9F7" stroke-opacity="0.05" stroke-miterlimit="10"/>
<path d="M1601.84 595.252L1647.73 638.052V574.748L1601.84 531.953V595.252Z" stroke="#FBF9F7" stroke-opacity="0.05" stroke-miterlimit="10"/>
<path d="M1601.84 913.265L1647.73 956.021V892.782L1601.84 850.031V913.265Z" stroke="#FBF9F7" stroke-opacity="0.05" stroke-miterlimit="10"/>
<path d="M1601.84 1125.25L1647.73 1168V1104.76L1601.84 1062.01V1125.25Z" stroke="#FBF9F7" stroke-opacity="0.05" stroke-miterlimit="10"/>
<path d="M1098.51 44.7511V107.99L1144.4 65.2338V2L1098.51 44.7511Z" stroke="#FBF9F7" stroke-opacity="0.05" stroke-miterlimit="10"/>
<path d="M1098.51 362.72V425.959L1144.4 383.203V319.969L1098.51 362.72Z" stroke="#FBF9F7" stroke-opacity="0.05" stroke-miterlimit="10"/>
<path d="M1098.51 680.798V744.037L1144.4 701.281V638.047L1098.51 680.798Z" stroke="#FBF9F7" stroke-opacity="0.05" stroke-miterlimit="10"/>
<path d="M1098.51 150.743V213.982L1144.4 171.226V107.992L1098.51 150.743Z" stroke="#FBF9F7" stroke-opacity="0.05" stroke-miterlimit="10"/>
<path d="M1098.51 468.712V531.951L1144.4 489.195V425.961L1098.51 468.712Z" stroke="#FBF9F7" stroke-opacity="0.05" stroke-miterlimit="10"/>
<path d="M1098.51 786.79V850.029L1144.4 807.273V744.039L1098.51 786.79Z" stroke="#FBF9F7" stroke-opacity="0.05" stroke-miterlimit="10"/>
<path d="M1098.51 998.771V1062.01L1144.4 1019.25V956.02L1098.51 998.771Z" stroke="#FBF9F7" stroke-opacity="0.05" stroke-miterlimit="10"/>
<path d="M1098.51 256.732V319.971L1144.4 277.214V213.98L1098.51 256.732Z" stroke="#FBF9F7" stroke-opacity="0.05" stroke-miterlimit="10"/>
<path d="M1098.51 574.748V638.052L1144.4 595.252V531.953L1098.51 574.748Z" stroke="#FBF9F7" stroke-opacity="0.05" stroke-miterlimit="10"/>
<path d="M1098.51 892.782V956.021L1144.4 913.265V850.031L1098.51 892.782Z" stroke="#FBF9F7" stroke-opacity="0.05" stroke-miterlimit="10"/>
<path d="M1098.51 1104.76V1168L1144.4 1125.24V1062.01L1098.51 1104.76Z" stroke="#FBF9F7" stroke-opacity="0.05" stroke-miterlimit="10"/>
<path d="M1556.13 44.7511V107.99L1601.83 65.2338V2L1556.13 44.7511Z" stroke="#FBF9F7" stroke-opacity="0.05" stroke-miterlimit="10"/>
<path d="M1556.13 362.72V425.959L1601.83 383.203V319.969L1556.13 362.72Z" stroke="#FBF9F7" stroke-opacity="0.05" stroke-miterlimit="10"/>
<path d="M1556.13 680.798V744.037L1601.83 701.281V638.047L1556.13 680.798Z" stroke="#FBF9F7" stroke-opacity="0.05" stroke-miterlimit="10"/>
<path d="M1556.13 150.743V213.982L1601.83 171.226V107.992L1556.13 150.743Z" stroke="#FBF9F7" stroke-opacity="0.05" stroke-miterlimit="10"/>
<path d="M1556.13 468.712V531.951L1601.83 489.195V425.961L1556.13 468.712Z" stroke="#FBF9F7" stroke-opacity="0.05" stroke-miterlimit="10"/>
<path d="M1556.13 786.79V850.029L1601.83 807.273V744.039L1556.13 786.79Z" stroke="#FBF9F7" stroke-opacity="0.05" stroke-miterlimit="10"/>
<path d="M1556.13 998.771V1062.01L1601.83 1019.25V956.02L1556.13 998.771Z" stroke="#FBF9F7" stroke-opacity="0.05" stroke-miterlimit="10"/>
<path d="M1556.13 256.732V319.971L1601.83 277.214V213.98L1556.13 256.732Z" stroke="#FBF9F7" stroke-opacity="0.05" stroke-miterlimit="10"/>
<path d="M1556.13 574.748V638.052L1601.83 595.252V531.953L1556.13 574.748Z" stroke="#FBF9F7" stroke-opacity="0.05" stroke-miterlimit="10"/>
<path d="M1556.13 892.782V956.021L1601.83 913.265V850.031L1556.13 892.782Z" stroke="#FBF9F7" stroke-opacity="0.05" stroke-miterlimit="10"/>
<path d="M1556.13 1104.76V1168L1601.83 1125.25V1062.01L1556.13 1104.76Z" stroke="#FBF9F7" stroke-opacity="0.05" stroke-miterlimit="10"/>
<path d="M229.719 65.2338L275.612 107.99V44.7511L229.719 2V65.2338Z" stroke="#FBF9F7" stroke-opacity="0.05" stroke-miterlimit="10"/>
<path d="M229.719 383.203L275.612 425.959V362.72L229.719 319.969V383.203Z" stroke="#FBF9F7" stroke-opacity="0.05" stroke-miterlimit="10"/>
<path d="M229.719 701.281L275.612 744.037V680.798L229.719 638.047V701.281Z" stroke="#FBF9F7" stroke-opacity="0.05" stroke-miterlimit="10"/>
<path d="M229.719 171.226L275.612 213.982V150.743L229.719 107.992V171.226Z" stroke="#FBF9F7" stroke-opacity="0.05" stroke-miterlimit="10"/>
<path d="M229.719 489.195L275.612 531.951V468.712L229.719 425.961V489.195Z" stroke="#FBF9F7" stroke-opacity="0.05" stroke-miterlimit="10"/>
<path d="M229.719 807.273L275.612 850.029V786.79L229.719 744.039V807.273Z" stroke="#FBF9F7" stroke-opacity="0.05" stroke-miterlimit="10"/>
<path d="M229.719 1019.25L275.612 1062.01V998.771L229.719 956.02V1019.25Z" stroke="#FBF9F7" stroke-opacity="0.05" stroke-miterlimit="10"/>
<path d="M229.719 277.214L275.612 319.971V256.732L229.719 213.98V277.214Z" stroke="#FBF9F7" stroke-opacity="0.05" stroke-miterlimit="10"/>
<path d="M229.719 595.252L275.612 638.052V574.748L229.719 531.953V595.252Z" stroke="#FBF9F7" stroke-opacity="0.05" stroke-miterlimit="10"/>
<path d="M229.719 913.265L275.612 956.021V892.782L229.719 850.031V913.265Z" stroke="#FBF9F7" stroke-opacity="0.05" stroke-miterlimit="10"/>
<path d="M229.719 1125.24L275.612 1168V1104.76L229.719 1062.01V1125.24Z" stroke="#FBF9F7" stroke-opacity="0.05" stroke-miterlimit="10"/>
<path d="M184.012 44.7511V107.99L229.718 65.2338V2L184.012 44.7511Z" stroke="#FBF9F7" stroke-opacity="0.05" stroke-miterlimit="10"/>
<path d="M184.012 362.72V425.959L229.718 383.203V319.969L184.012 362.72Z" stroke="#FBF9F7" stroke-opacity="0.05" stroke-miterlimit="10"/>
<path d="M184.012 680.798V744.037L229.718 701.281V638.047L184.012 680.798Z" stroke="#FBF9F7" stroke-opacity="0.05" stroke-miterlimit="10"/>
<path d="M184.012 150.743V213.982L229.718 171.226V107.992L184.012 150.743Z" stroke="#FBF9F7" stroke-opacity="0.05" stroke-miterlimit="10"/>
<path d="M184.012 468.712V531.951L229.718 489.195V425.961L184.012 468.712Z" stroke="#FBF9F7" stroke-opacity="0.05" stroke-miterlimit="10"/>
<path d="M184.012 786.79V850.029L229.718 807.273V744.039L184.012 786.79Z" stroke="#FBF9F7" stroke-opacity="0.05" stroke-miterlimit="10"/>
<path d="M184.012 998.771V1062.01L229.718 1019.25V956.02L184.012 998.771Z" stroke="#FBF9F7" stroke-opacity="0.05" stroke-miterlimit="10"/>
<path d="M184.012 256.732V319.971L229.718 277.214V213.98L184.012 256.732Z" stroke="#FBF9F7" stroke-opacity="0.05" stroke-miterlimit="10"/>
<path d="M184.012 574.748V638.052L229.718 595.252V531.953L184.012 574.748Z" stroke="#FBF9F7" stroke-opacity="0.05" stroke-miterlimit="10"/>
<path d="M184.012 892.782V956.021L229.718 913.265V850.031L184.012 892.782Z" stroke="#FBF9F7" stroke-opacity="0.05" stroke-miterlimit="10"/>
<path d="M184.012 1104.76V1168L229.718 1125.25V1062.01L184.012 1104.76Z" stroke="#FBF9F7" stroke-opacity="0.05" stroke-miterlimit="10"/>
<path d="M961.203 65.2338L1007.28 107.99V44.7511L961.203 2V65.2338Z" stroke="#FBF9F7" stroke-opacity="0.05" stroke-miterlimit="10"/>
<path d="M961.203 383.203L1007.28 425.959V362.72L961.203 319.969V383.203Z" stroke="#FBF9F7" stroke-opacity="0.05" stroke-miterlimit="10"/>
<path d="M961.203 701.281L1007.28 744.037V680.798L961.203 638.047V701.281Z" stroke="#FBF9F7" stroke-opacity="0.05" stroke-miterlimit="10"/>
<path d="M961.203 171.226L1007.28 213.982V150.743L961.203 107.992V171.226Z" stroke="#FBF9F7" stroke-opacity="0.05" stroke-miterlimit="10"/>
<path d="M961.203 489.195L1007.28 531.951V468.712L961.203 425.961V489.195Z" stroke="#FBF9F7" stroke-opacity="0.05" stroke-miterlimit="10"/>
<path d="M961.203 807.273L1007.28 850.029V786.79L961.203 744.039V807.273Z" stroke="#FBF9F7" stroke-opacity="0.05" stroke-miterlimit="10"/>
<path d="M961.203 1019.25L1007.28 1062.01V998.771L961.203 956.02V1019.25Z" stroke="#FBF9F7" stroke-opacity="0.05" stroke-miterlimit="10"/>
<path d="M961.203 277.214L1007.28 319.971V256.732L961.203 213.98V277.214Z" stroke="#FBF9F7" stroke-opacity="0.05" stroke-miterlimit="10"/>
<path d="M961.203 595.252L1007.28 638.052V574.748L961.203 531.953V595.252Z" stroke="#FBF9F7" stroke-opacity="0.05" stroke-miterlimit="10"/>
<path d="M961.203 913.265L1007.28 956.021V892.782L961.203 850.031V913.265Z" stroke="#FBF9F7" stroke-opacity="0.05" stroke-miterlimit="10"/>
<path d="M961.203 1125.24L1007.28 1168V1104.76L961.203 1062.01V1125.24Z" stroke="#FBF9F7" stroke-opacity="0.05" stroke-miterlimit="10"/>
<path d="M915.492 44.7511V107.99L961.198 65.2338V2L915.492 44.7511Z" stroke="#FBF9F7" stroke-opacity="0.05" stroke-miterlimit="10"/>
<path d="M915.492 362.72V425.959L961.198 383.203V319.969L915.492 362.72Z" stroke="#FBF9F7" stroke-opacity="0.05" stroke-miterlimit="10"/>
<path d="M915.492 680.798V744.037L961.198 701.281V638.047L915.492 680.798Z" stroke="#FBF9F7" stroke-opacity="0.05" stroke-miterlimit="10"/>
<path d="M915.492 150.743V213.982L961.198 171.226V107.992L915.492 150.743Z" stroke="#FBF9F7" stroke-opacity="0.05" stroke-miterlimit="10"/>
<path d="M915.492 468.712V531.951L961.198 489.195V425.961L915.492 468.712Z" stroke="#FBF9F7" stroke-opacity="0.05" stroke-miterlimit="10"/>
<path d="M915.492 786.79V850.029L961.198 807.273V744.039L915.492 786.79Z" stroke="#FBF9F7" stroke-opacity="0.05" stroke-miterlimit="10"/>
<path d="M915.492 998.771V1062.01L961.198 1019.25V956.02L915.492 998.771Z" stroke="#FBF9F7" stroke-opacity="0.05" stroke-miterlimit="10"/>
<path d="M915.492 256.732V319.971L961.198 277.214V213.98L915.492 256.732Z" stroke="#FBF9F7" stroke-opacity="0.05" stroke-miterlimit="10"/>
<path d="M915.492 574.748V638.052L961.198 595.252V531.953L915.492 574.748Z" stroke="#FBF9F7" stroke-opacity="0.05" stroke-miterlimit="10"/>
<path d="M915.492 892.782V956.021L961.198 913.265V850.031L915.492 892.782Z" stroke="#FBF9F7" stroke-opacity="0.05" stroke-miterlimit="10"/>
<path d="M915.492 1104.76V1168L961.198 1125.24V1062.01L915.492 1104.76Z" stroke="#FBF9F7" stroke-opacity="0.05" stroke-miterlimit="10"/>
<path d="M595.555 65.2338L641.448 107.99V44.7511L595.555 2V65.2338Z" stroke="#FBF9F7" stroke-opacity="0.05" stroke-miterlimit="10"/>
<path d="M595.555 383.203L641.448 425.959V362.72L595.555 319.969V383.203Z" stroke="#FBF9F7" stroke-opacity="0.05" stroke-miterlimit="10"/>
<path d="M595.555 701.281L641.448 744.037V680.798L595.555 638.047V701.281Z" stroke="#FBF9F7" stroke-opacity="0.05" stroke-miterlimit="10"/>
<path d="M595.555 171.226L641.448 213.982V150.743L595.555 107.992V171.226Z" stroke="#FBF9F7" stroke-opacity="0.05" stroke-miterlimit="10"/>
<path d="M595.555 489.195L641.448 531.951V468.712L595.555 425.961V489.195Z" stroke="#FBF9F7" stroke-opacity="0.05" stroke-miterlimit="10"/>
<path d="M595.555 807.273L641.448 850.029V786.79L595.555 744.039V807.273Z" stroke="#FBF9F7" stroke-opacity="0.05" stroke-miterlimit="10"/>
<path d="M595.555 1019.25L641.448 1062.01V998.771L595.555 956.02V1019.25Z" stroke="#FBF9F7" stroke-opacity="0.05" stroke-miterlimit="10"/>
<path d="M595.555 277.214L641.448 319.971V256.732L595.555 213.98V277.214Z" stroke="#FBF9F7" stroke-opacity="0.05" stroke-miterlimit="10"/>
<path d="M595.555 595.252L641.448 638.052V574.748L595.555 531.953V595.252Z" stroke="#FBF9F7" stroke-opacity="0.05" stroke-miterlimit="10"/>
<path d="M595.555 913.265L641.448 956.021V892.782L595.555 850.031V913.265Z" stroke="#FBF9F7" stroke-opacity="0.05" stroke-miterlimit="10"/>
<path d="M595.555 1125.24L641.448 1168V1104.76L595.555 1062.01V1125.24Z" stroke="#FBF9F7" stroke-opacity="0.05" stroke-miterlimit="10"/>
<path d="M549.656 44.7511V107.99L595.55 65.2338V2L549.656 44.7511Z" stroke="#FBF9F7" stroke-opacity="0.05" stroke-miterlimit="10"/>
<path d="M549.656 362.72V425.959L595.55 383.203V319.969L549.656 362.72Z" stroke="#FBF9F7" stroke-opacity="0.05" stroke-miterlimit="10"/>
<path d="M549.656 680.798V744.037L595.55 701.281V638.047L549.656 680.798Z" stroke="#FBF9F7" stroke-opacity="0.05" stroke-miterlimit="10"/>
<path d="M549.656 150.743V213.982L595.55 171.226V107.992L549.656 150.743Z" stroke="#FBF9F7" stroke-opacity="0.05" stroke-miterlimit="10"/>
<path d="M549.656 468.712V531.951L595.55 489.195V425.961L549.656 468.712Z" stroke="#FBF9F7" stroke-opacity="0.05" stroke-miterlimit="10"/>
<path d="M549.656 786.79V850.029L595.55 807.273V744.039L549.656 786.79Z" stroke="#FBF9F7" stroke-opacity="0.05" stroke-miterlimit="10"/>
<path d="M549.656 998.771V1062.01L595.55 1019.25V956.02L549.656 998.771Z" stroke="#FBF9F7" stroke-opacity="0.05" stroke-miterlimit="10"/>
<path d="M549.656 256.732V319.971L595.55 277.214V213.98L549.656 256.732Z" stroke="#FBF9F7" stroke-opacity="0.05" stroke-miterlimit="10"/>
<path d="M549.656 574.748V638.052L595.55 595.252V531.953L549.656 574.748Z" stroke="#FBF9F7" stroke-opacity="0.05" stroke-miterlimit="10"/>
<path d="M549.656 892.782V956.021L595.55 913.265V850.031L549.656 892.782Z" stroke="#FBF9F7" stroke-opacity="0.05" stroke-miterlimit="10"/>
<path d="M549.656 1104.76V1168L595.55 1125.24V1062.01L549.656 1104.76Z" stroke="#FBF9F7" stroke-opacity="0.05" stroke-miterlimit="10"/>
<path d="M1327.22 65.2338L1373.12 107.99V44.7511L1327.22 2V65.2338Z" stroke="#FBF9F7" stroke-opacity="0.05" stroke-miterlimit="10"/>
<path d="M1327.22 383.203L1373.12 425.959V362.72L1327.22 319.969V383.203Z" stroke="#FBF9F7" stroke-opacity="0.05" stroke-miterlimit="10"/>
<path d="M1327.22 701.281L1373.12 744.037V680.798L1327.22 638.047V701.281Z" stroke="#FBF9F7" stroke-opacity="0.05" stroke-miterlimit="10"/>
<path d="M1327.22 171.226L1373.12 213.982V150.743L1327.22 107.992V171.226Z" stroke="#FBF9F7" stroke-opacity="0.05" stroke-miterlimit="10"/>
<path d="M1327.22 489.195L1373.12 531.951V468.712L1327.22 425.961V489.195Z" stroke="#FBF9F7" stroke-opacity="0.05" stroke-miterlimit="10"/>
<path d="M1327.22 807.273L1373.12 850.029V786.79L1327.22 744.039V807.273Z" stroke="#FBF9F7" stroke-opacity="0.05" stroke-miterlimit="10"/>
<path d="M1327.22 1019.25L1373.12 1062.01V998.771L1327.22 956.02V1019.25Z" stroke="#FBF9F7" stroke-opacity="0.05" stroke-miterlimit="10"/>
<path d="M1327.22 277.214L1373.12 319.971V256.732L1327.22 213.98V277.214Z" stroke="#FBF9F7" stroke-opacity="0.05" stroke-miterlimit="10"/>
<path d="M1327.22 595.252L1373.12 638.052V574.748L1327.22 531.953V595.252Z" stroke="#FBF9F7" stroke-opacity="0.05" stroke-miterlimit="10"/>
<path d="M1327.22 913.265L1373.12 956.021V892.782L1327.22 850.031V913.265Z" stroke="#FBF9F7" stroke-opacity="0.05" stroke-miterlimit="10"/>
<path d="M1327.22 1125.25L1373.12 1168V1104.76L1327.22 1062.01V1125.25Z" stroke="#FBF9F7" stroke-opacity="0.05" stroke-miterlimit="10"/>
<path d="M1784.66 65.2338L1830.55 107.99V44.7511L1784.66 2V65.2338Z" stroke="#FBF9F7" stroke-opacity="0.05" stroke-miterlimit="10"/>
<path d="M1784.66 383.203L1830.55 425.959V362.72L1784.66 319.969V383.203Z" stroke="#FBF9F7" stroke-opacity="0.05" stroke-miterlimit="10"/>
<path d="M1784.66 701.281L1830.55 744.037V680.798L1784.66 638.047V701.281Z" stroke="#FBF9F7" stroke-opacity="0.05" stroke-miterlimit="10"/>
<path d="M1784.66 171.226L1830.55 213.982V150.743L1784.66 107.992V171.226Z" stroke="#FBF9F7" stroke-opacity="0.05" stroke-miterlimit="10"/>
<path d="M1784.66 489.195L1830.55 531.951V468.712L1784.66 425.961V489.195Z" stroke="#FBF9F7" stroke-opacity="0.05" stroke-miterlimit="10"/>
<path d="M1784.66 807.273L1830.55 850.029V786.79L1784.66 744.039V807.273Z" stroke="#FBF9F7" stroke-opacity="0.05" stroke-miterlimit="10"/>
<path d="M1784.66 1019.25L1830.55 1062.01V998.771L1784.66 956.02V1019.25Z" stroke="#FBF9F7" stroke-opacity="0.05" stroke-miterlimit="10"/>
<path d="M1784.66 277.214L1830.55 319.971V256.732L1784.66 213.98V277.214Z" stroke="#FBF9F7" stroke-opacity="0.05" stroke-miterlimit="10"/>
<path d="M1784.66 595.252L1830.55 638.052V574.748L1784.66 531.953V595.252Z" stroke="#FBF9F7" stroke-opacity="0.05" stroke-miterlimit="10"/>
<path d="M1784.66 913.265L1830.55 956.021V892.782L1784.66 850.031V913.265Z" stroke="#FBF9F7" stroke-opacity="0.05" stroke-miterlimit="10"/>
<path d="M1784.66 1125.25L1830.55 1168V1104.76L1784.66 1062.01V1125.25Z" stroke="#FBF9F7" stroke-opacity="0.05" stroke-miterlimit="10"/>
<path d="M1281.33 44.7511V107.99L1327.23 65.2338V2L1281.33 44.7511Z" stroke="#FBF9F7" stroke-opacity="0.05" stroke-miterlimit="10"/>
<path d="M1281.33 362.72V425.959L1327.23 383.203V319.969L1281.33 362.72Z" stroke="#FBF9F7" stroke-opacity="0.05" stroke-miterlimit="10"/>
<path d="M1281.33 680.798V744.037L1327.23 701.281V638.047L1281.33 680.798Z" stroke="#FBF9F7" stroke-opacity="0.05" stroke-miterlimit="10"/>
<path d="M1281.33 150.743V213.982L1327.23 171.226V107.992L1281.33 150.743Z" stroke="#FBF9F7" stroke-opacity="0.05" stroke-miterlimit="10"/>
<path d="M1281.33 468.712V531.951L1327.23 489.195V425.961L1281.33 468.712Z" stroke="#FBF9F7" stroke-opacity="0.05" stroke-miterlimit="10"/>
<path d="M1281.33 786.79V850.029L1327.23 807.273V744.039L1281.33 786.79Z" stroke="#FBF9F7" stroke-opacity="0.05" stroke-miterlimit="10"/>
<path d="M1281.33 998.771V1062.01L1327.23 1019.25V956.02L1281.33 998.771Z" stroke="#FBF9F7" stroke-opacity="0.05" stroke-miterlimit="10"/>
<path d="M1281.33 256.732V319.971L1327.23 277.214V213.98L1281.33 256.732Z" stroke="#FBF9F7" stroke-opacity="0.05" stroke-miterlimit="10"/>
<path d="M1281.33 574.748V638.052L1327.23 595.252V531.953L1281.33 574.748Z" stroke="#FBF9F7" stroke-opacity="0.05" stroke-miterlimit="10"/>
<path d="M1281.33 892.782V956.021L1327.23 913.265V850.031L1281.33 892.782Z" stroke="#FBF9F7" stroke-opacity="0.05" stroke-miterlimit="10"/>
<path d="M1281.33 1104.76V1168L1327.23 1125.25V1062.01L1281.33 1104.76Z" stroke="#FBF9F7" stroke-opacity="0.05" stroke-miterlimit="10"/>
<path d="M1738.95 44.7511V107.99L1784.66 65.2338V2L1738.95 44.7511Z" stroke="#FBF9F7" stroke-opacity="0.05" stroke-miterlimit="10"/>
<path d="M1738.95 362.72V425.959L1784.66 383.203V319.969L1738.95 362.72Z" stroke="#FBF9F7" stroke-opacity="0.05" stroke-miterlimit="10"/>
<path d="M1738.95 680.798V744.037L1784.66 701.281V638.047L1738.95 680.798Z" stroke="#FBF9F7" stroke-opacity="0.05" stroke-miterlimit="10"/>
<path d="M1738.95 150.743V213.982L1784.66 171.226V107.992L1738.95 150.743Z" stroke="#FBF9F7" stroke-opacity="0.05" stroke-miterlimit="10"/>
<path d="M1738.95 468.712V531.951L1784.66 489.195V425.961L1738.95 468.712Z" stroke="#FBF9F7" stroke-opacity="0.05" stroke-miterlimit="10"/>
<path d="M1738.95 786.79V850.029L1784.66 807.273V744.039L1738.95 786.79Z" stroke="#FBF9F7" stroke-opacity="0.05" stroke-miterlimit="10"/>
<path d="M1738.95 998.771V1062.01L1784.66 1019.25V956.02L1738.95 998.771Z" stroke="#FBF9F7" stroke-opacity="0.05" stroke-miterlimit="10"/>
<path d="M1738.95 256.732V319.971L1784.66 277.214V213.98L1738.95 256.732Z" stroke="#FBF9F7" stroke-opacity="0.05" stroke-miterlimit="10"/>
<path d="M1738.95 574.748V638.052L1784.66 595.252V531.953L1738.95 574.748Z" stroke="#FBF9F7" stroke-opacity="0.05" stroke-miterlimit="10"/>
<path d="M1738.95 892.782V956.021L1784.66 913.265V850.031L1738.95 892.782Z" stroke="#FBF9F7" stroke-opacity="0.05" stroke-miterlimit="10"/>
<path d="M1738.95 1104.76V1168L1784.66 1125.25V1062.01L1738.95 1104.76Z" stroke="#FBF9F7" stroke-opacity="0.05" stroke-miterlimit="10"/>
<path d="M138.305 65.2338L184.198 107.99V44.7511L138.305 2V65.2338Z" stroke="#FBF9F7" stroke-opacity="0.05" stroke-miterlimit="10"/>
<path d="M138.305 383.203L184.198 425.959V362.72L138.305 319.969V383.203Z" stroke="#FBF9F7" stroke-opacity="0.05" stroke-miterlimit="10"/>
<path d="M138.305 701.281L184.198 744.037V680.798L138.305 638.047V701.281Z" stroke="#FBF9F7" stroke-opacity="0.05" stroke-miterlimit="10"/>
<path d="M138.305 171.226L184.198 213.982V150.743L138.305 107.992V171.226Z" stroke="#FBF9F7" stroke-opacity="0.05" stroke-miterlimit="10"/>
<path d="M138.305 489.195L184.198 531.951V468.712L138.305 425.961V489.195Z" stroke="#FBF9F7" stroke-opacity="0.05" stroke-miterlimit="10"/>
<path d="M138.305 807.273L184.198 850.029V786.79L138.305 744.039V807.273Z" stroke="#FBF9F7" stroke-opacity="0.05" stroke-miterlimit="10"/>
<path d="M138.305 1019.25L184.198 1062.01V998.771L138.305 956.02V1019.25Z" stroke="#FBF9F7" stroke-opacity="0.05" stroke-miterlimit="10"/>
<path d="M138.305 277.214L184.198 319.971V256.732L138.305 213.98V277.214Z" stroke="#FBF9F7" stroke-opacity="0.05" stroke-miterlimit="10"/>
<path d="M138.305 595.252L184.198 638.052V574.748L138.305 531.953V595.252Z" stroke="#FBF9F7" stroke-opacity="0.05" stroke-miterlimit="10"/>
<path d="M138.305 913.265L184.198 956.021V892.782L138.305 850.031V913.265Z" stroke="#FBF9F7" stroke-opacity="0.05" stroke-miterlimit="10"/>
<path d="M138.305 1125.24L184.198 1168V1104.76L138.305 1062.01V1125.24Z" stroke="#FBF9F7" stroke-opacity="0.05" stroke-miterlimit="10"/>
<path d="M92.6016 44.7511V107.99L138.308 65.2338V2L92.6016 44.7511Z" stroke="#FBF9F7" stroke-opacity="0.05" stroke-miterlimit="10"/>
<path d="M92.6016 362.72V425.959L138.308 383.203V319.969L92.6016 362.72Z" stroke="#FBF9F7" stroke-opacity="0.05" stroke-miterlimit="10"/>
<path d="M92.6016 680.798V744.037L138.308 701.281V638.047L92.6016 680.798Z" stroke="#FBF9F7" stroke-opacity="0.05" stroke-miterlimit="10"/>
<path d="M92.6016 150.743V213.982L138.308 171.226V107.992L92.6016 150.743Z" stroke="#FBF9F7" stroke-opacity="0.05" stroke-miterlimit="10"/>
<path d="M92.6016 468.712V531.951L138.308 489.195V425.961L92.6016 468.712Z" stroke="#FBF9F7" stroke-opacity="0.05" stroke-miterlimit="10"/>
<path d="M92.6016 786.79V850.029L138.308 807.273V744.039L92.6016 786.79Z" stroke="#FBF9F7" stroke-opacity="0.05" stroke-miterlimit="10"/>
<path d="M92.6016 998.771V1062.01L138.308 1019.25V956.02L92.6016 998.771Z" stroke="#FBF9F7" stroke-opacity="0.05" stroke-miterlimit="10"/>
<path d="M92.6016 256.732V319.971L138.308 277.214V213.98L92.6016 256.732Z" stroke="#FBF9F7" stroke-opacity="0.05" stroke-miterlimit="10"/>
<path d="M92.6016 574.748V638.052L138.308 595.252V531.953L92.6016 574.748Z" stroke="#FBF9F7" stroke-opacity="0.05" stroke-miterlimit="10"/>
<path d="M92.6016 892.782V956.021L138.308 913.265V850.031L92.6016 892.782Z" stroke="#FBF9F7" stroke-opacity="0.05" stroke-miterlimit="10"/>
<path d="M92.6016 1104.76V1168L138.308 1125.24V1062.01L92.6016 1104.76Z" stroke="#FBF9F7" stroke-opacity="0.05" stroke-miterlimit="10"/>
<path d="M870.164 65.2338L915.87 107.99V44.7511L870.164 2V65.2338Z" stroke="#FBF9F7" stroke-opacity="0.05" stroke-miterlimit="10"/>
<path d="M870.164 383.203L915.87 425.959V362.72L870.164 319.969V383.203Z" stroke="#FBF9F7" stroke-opacity="0.05" stroke-miterlimit="10"/>
<path d="M870.164 701.281L915.87 744.037V680.798L870.164 638.047V701.281Z" stroke="#FBF9F7" stroke-opacity="0.05" stroke-miterlimit="10"/>
<path d="M870.164 171.226L915.87 213.982V150.743L870.164 107.992V171.226Z" stroke="#FBF9F7" stroke-opacity="0.05" stroke-miterlimit="10"/>
<path d="M870.164 489.195L915.87 531.951V468.712L870.164 425.961V489.195Z" stroke="#FBF9F7" stroke-opacity="0.05" stroke-miterlimit="10"/>
<path d="M870.164 807.273L915.87 850.029V786.79L870.164 744.039V807.273Z" stroke="#FBF9F7" stroke-opacity="0.05" stroke-miterlimit="10"/>
<path d="M870.164 1019.25L915.87 1062.01V998.771L870.164 956.02V1019.25Z" stroke="#FBF9F7" stroke-opacity="0.05" stroke-miterlimit="10"/>
<path d="M870.164 277.214L915.87 319.971V256.732L870.164 213.98V277.214Z" stroke="#FBF9F7" stroke-opacity="0.05" stroke-miterlimit="10"/>
<path d="M870.164 595.252L915.87 638.052V574.748L870.164 531.953V595.252Z" stroke="#FBF9F7" stroke-opacity="0.05" stroke-miterlimit="10"/>
<path d="M870.164 913.265L915.87 956.021V892.782L870.164 850.031V913.265Z" stroke="#FBF9F7" stroke-opacity="0.05" stroke-miterlimit="10"/>
<path d="M870.164 1125.25L915.87 1168V1104.76L870.164 1062.01V1125.25Z" stroke="#FBF9F7" stroke-opacity="0.05" stroke-miterlimit="10"/>
<path d="M824.27 44.7511V107.99L870.163 65.2338V2L824.27 44.7511Z" stroke="#FBF9F7" stroke-opacity="0.05" stroke-miterlimit="10"/>
<path d="M824.27 362.72V425.959L870.163 383.203V319.969L824.27 362.72Z" stroke="#FBF9F7" stroke-opacity="0.05" stroke-miterlimit="10"/>
<path d="M824.27 680.798V744.037L870.163 701.281V638.047L824.27 680.798Z" stroke="#FBF9F7" stroke-opacity="0.05" stroke-miterlimit="10"/>
<path d="M824.27 150.743V213.982L870.163 171.226V107.992L824.27 150.743Z" stroke="#FBF9F7" stroke-opacity="0.05" stroke-miterlimit="10"/>
<path d="M824.27 468.712V531.951L870.163 489.195V425.961L824.27 468.712Z" stroke="#FBF9F7" stroke-opacity="0.05" stroke-miterlimit="10"/>
<path d="M824.27 786.79V850.029L870.163 807.273V744.039L824.27 786.79Z" stroke="#FBF9F7" stroke-opacity="0.05" stroke-miterlimit="10"/>
<path d="M824.27 998.771V1062.01L870.163 1019.25V956.02L824.27 998.771Z" stroke="#FBF9F7" stroke-opacity="0.05" stroke-miterlimit="10"/>
<path d="M824.27 256.732V319.971L870.163 277.214V213.98L824.27 256.732Z" stroke="#FBF9F7" stroke-opacity="0.05" stroke-miterlimit="10"/>
<path d="M824.27 574.748V638.052L870.163 595.252V531.953L824.27 574.748Z" stroke="#FBF9F7" stroke-opacity="0.05" stroke-miterlimit="10"/>
<path d="M824.27 892.782V956.021L870.163 913.265V850.031L824.27 892.782Z" stroke="#FBF9F7" stroke-opacity="0.05" stroke-miterlimit="10"/>
<path d="M824.27 1104.76V1168L870.163 1125.25V1062.01L824.27 1104.76Z" stroke="#FBF9F7" stroke-opacity="0.05" stroke-miterlimit="10"/>
<path d="M504.141 65.2338L550.034 107.99V44.7511L504.141 2V65.2338Z" stroke="#FBF9F7" stroke-opacity="0.05" stroke-miterlimit="10"/>
<path d="M504.141 383.203L550.034 425.959V362.72L504.141 319.969V383.203Z" stroke="#FBF9F7" stroke-opacity="0.05" stroke-miterlimit="10"/>
<path d="M504.141 701.281L550.034 744.037V680.798L504.141 638.047V701.281Z" stroke="#FBF9F7" stroke-opacity="0.05" stroke-miterlimit="10"/>
<path d="M504.141 171.226L550.034 213.982V150.743L504.141 107.992V171.226Z" stroke="#FBF9F7" stroke-opacity="0.05" stroke-miterlimit="10"/>
<path d="M504.141 489.195L550.034 531.951V468.712L504.141 425.961V489.195Z" stroke="#FBF9F7" stroke-opacity="0.05" stroke-miterlimit="10"/>
<path d="M504.141 807.273L550.034 850.029V786.79L504.141 744.039V807.273Z" stroke="#FBF9F7" stroke-opacity="0.05" stroke-miterlimit="10"/>
<path d="M504.141 1019.25L550.034 1062.01V998.771L504.141 956.02V1019.25Z" stroke="#FBF9F7" stroke-opacity="0.05" stroke-miterlimit="10"/>
<path d="M504.141 277.214L550.034 319.971V256.732L504.141 213.98V277.214Z" stroke="#FBF9F7" stroke-opacity="0.05" stroke-miterlimit="10"/>
<path d="M504.141 595.252L550.034 638.052V574.748L504.141 531.953V595.252Z" stroke="#FBF9F7" stroke-opacity="0.05" stroke-miterlimit="10"/>
<path d="M504.141 913.265L550.034 956.021V892.782L504.141 850.031V913.265Z" stroke="#FBF9F7" stroke-opacity="0.05" stroke-miterlimit="10"/>
<path d="M504.141 1125.24L550.034 1168V1104.76L504.141 1062.01V1125.24Z" stroke="#FBF9F7" stroke-opacity="0.05" stroke-miterlimit="10"/>
<path d="M458.434 44.7511V107.99L504.14 65.2338V2L458.434 44.7511Z" stroke="#FBF9F7" stroke-opacity="0.05" stroke-miterlimit="10"/>
<path d="M458.434 362.72V425.959L504.14 383.203V319.969L458.434 362.72Z" stroke="#FBF9F7" stroke-opacity="0.05" stroke-miterlimit="10"/>
<path d="M458.434 680.798V744.037L504.14 701.281V638.047L458.434 680.798Z" stroke="#FBF9F7" stroke-opacity="0.05" stroke-miterlimit="10"/>
<path d="M458.434 150.743V213.982L504.14 171.226V107.992L458.434 150.743Z" stroke="#FBF9F7" stroke-opacity="0.05" stroke-miterlimit="10"/>
<path d="M458.434 468.712V531.951L504.14 489.195V425.961L458.434 468.712Z" stroke="#FBF9F7" stroke-opacity="0.05" stroke-miterlimit="10"/>
<path d="M458.434 786.79V850.029L504.14 807.273V744.039L458.434 786.79Z" stroke="#FBF9F7" stroke-opacity="0.05" stroke-miterlimit="10"/>
<path d="M458.434 998.771V1062.01L504.14 1019.25V956.02L458.434 998.771Z" stroke="#FBF9F7" stroke-opacity="0.05" stroke-miterlimit="10"/>
<path d="M458.434 256.732V319.971L504.14 277.214V213.98L458.434 256.732Z" stroke="#FBF9F7" stroke-opacity="0.05" stroke-miterlimit="10"/>
<path d="M458.434 574.748V638.052L504.14 595.252V531.953L458.434 574.748Z" stroke="#FBF9F7" stroke-opacity="0.05" stroke-miterlimit="10"/>
<path d="M458.434 892.782V956.021L504.14 913.265V850.031L458.434 892.782Z" stroke="#FBF9F7" stroke-opacity="0.05" stroke-miterlimit="10"/>
<path d="M458.434 1104.76V1168L504.14 1125.25V1062.01L458.434 1104.76Z" stroke="#FBF9F7" stroke-opacity="0.05" stroke-miterlimit="10"/>
<path d="M1235.81 65.2338L1281.71 107.99V44.7511L1235.81 2V65.2338Z" stroke="#FBF9F7" stroke-opacity="0.05" stroke-miterlimit="10"/>
<path d="M1235.81 383.203L1281.71 425.959V362.72L1235.81 319.969V383.203Z" stroke="#FBF9F7" stroke-opacity="0.05" stroke-miterlimit="10"/>
<path d="M1235.81 701.281L1281.71 744.037V680.798L1235.81 638.047V701.281Z" stroke="#FBF9F7" stroke-opacity="0.05" stroke-miterlimit="10"/>
<path d="M1235.81 171.226L1281.71 213.982V150.743L1235.81 107.992V171.226Z" stroke="#FBF9F7" stroke-opacity="0.05" stroke-miterlimit="10"/>
<path d="M1235.81 489.195L1281.71 531.951V468.712L1235.81 425.961V489.195Z" stroke="#FBF9F7" stroke-opacity="0.05" stroke-miterlimit="10"/>
<path d="M1235.81 807.273L1281.71 850.029V786.79L1235.81 744.039V807.273Z" stroke="#FBF9F7" stroke-opacity="0.05" stroke-miterlimit="10"/>
<path d="M1235.81 1019.25L1281.71 1062.01V998.771L1235.81 956.02V1019.25Z" stroke="#FBF9F7" stroke-opacity="0.05" stroke-miterlimit="10"/>
<path d="M1235.81 277.214L1281.71 319.971V256.732L1235.81 213.98V277.214Z" stroke="#FBF9F7" stroke-opacity="0.05" stroke-miterlimit="10"/>
<path d="M1235.81 595.252L1281.71 638.052V574.748L1235.81 531.953V595.252Z" stroke="#FBF9F7" stroke-opacity="0.05" stroke-miterlimit="10"/>
<path d="M1235.81 913.265L1281.71 956.021V892.782L1235.81 850.031V913.265Z" stroke="#FBF9F7" stroke-opacity="0.05" stroke-miterlimit="10"/>
<path d="M1235.81 1125.25L1281.71 1168V1104.76L1235.81 1062.01V1125.25Z" stroke="#FBF9F7" stroke-opacity="0.05" stroke-miterlimit="10"/>
<path d="M1693.44 65.2338L1739.33 107.99V44.7511L1693.44 2V65.2338Z" stroke="#FBF9F7" stroke-opacity="0.05" stroke-miterlimit="10"/>
<path d="M1693.44 383.203L1739.33 425.959V362.72L1693.44 319.969V383.203Z" stroke="#FBF9F7" stroke-opacity="0.05" stroke-miterlimit="10"/>
<path d="M1693.44 701.281L1739.33 744.037V680.798L1693.44 638.047V701.281Z" stroke="#FBF9F7" stroke-opacity="0.05" stroke-miterlimit="10"/>
<path d="M1693.44 171.226L1739.33 213.982V150.743L1693.44 107.992V171.226Z" stroke="#FBF9F7" stroke-opacity="0.05" stroke-miterlimit="10"/>
<path d="M1693.44 489.195L1739.33 531.951V468.712L1693.44 425.961V489.195Z" stroke="#FBF9F7" stroke-opacity="0.05" stroke-miterlimit="10"/>
<path d="M1693.44 807.273L1739.33 850.029V786.79L1693.44 744.039V807.273Z" stroke="#FBF9F7" stroke-opacity="0.05" stroke-miterlimit="10"/>
<path d="M1693.44 1019.25L1739.33 1062.01V998.771L1693.44 956.02V1019.25Z" stroke="#FBF9F7" stroke-opacity="0.05" stroke-miterlimit="10"/>
<path d="M1693.44 277.214L1739.33 319.971V256.732L1693.44 213.98V277.214Z" stroke="#FBF9F7" stroke-opacity="0.05" stroke-miterlimit="10"/>
<path d="M1693.44 595.252L1739.33 638.052V574.748L1693.44 531.953V595.252Z" stroke="#FBF9F7" stroke-opacity="0.05" stroke-miterlimit="10"/>
<path d="M1693.44 913.265L1739.33 956.021V892.782L1693.44 850.031V913.265Z" stroke="#FBF9F7" stroke-opacity="0.05" stroke-miterlimit="10"/>
<path d="M1693.44 1125.24L1739.33 1168V1104.76L1693.44 1062.01V1125.24Z" stroke="#FBF9F7" stroke-opacity="0.05" stroke-miterlimit="10"/>
<path d="M1190.11 44.7511V107.99L1235.82 65.2338V2L1190.11 44.7511Z" stroke="#FBF9F7" stroke-opacity="0.05" stroke-miterlimit="10"/>
<path d="M1190.11 362.72V425.959L1235.82 383.203V319.969L1190.11 362.72Z" stroke="#FBF9F7" stroke-opacity="0.05" stroke-miterlimit="10"/>
<path d="M1190.11 680.798V744.037L1235.82 701.281V638.047L1190.11 680.798Z" stroke="#FBF9F7" stroke-opacity="0.05" stroke-miterlimit="10"/>
<path d="M1190.11 150.743V213.982L1235.82 171.226V107.992L1190.11 150.743Z" stroke="#FBF9F7" stroke-opacity="0.05" stroke-miterlimit="10"/>
<path d="M1190.11 468.712V531.951L1235.82 489.195V425.961L1190.11 468.712Z" stroke="#FBF9F7" stroke-opacity="0.05" stroke-miterlimit="10"/>
<path d="M1190.11 786.79V850.029L1235.82 807.273V744.039L1190.11 786.79Z" stroke="#FBF9F7" stroke-opacity="0.05" stroke-miterlimit="10"/>
<path d="M1190.11 998.771V1062.01L1235.82 1019.25V956.02L1190.11 998.771Z" stroke="#FBF9F7" stroke-opacity="0.05" stroke-miterlimit="10"/>
<path d="M1190.11 256.732V319.971L1235.82 277.214V213.98L1190.11 256.732Z" stroke="#FBF9F7" stroke-opacity="0.05" stroke-miterlimit="10"/>
<path d="M1190.11 574.748V638.052L1235.82 595.252V531.953L1190.11 574.748Z" stroke="#FBF9F7" stroke-opacity="0.05" stroke-miterlimit="10"/>
<path d="M1190.11 892.782V956.021L1235.82 913.265V850.031L1190.11 892.782Z" stroke="#FBF9F7" stroke-opacity="0.05" stroke-miterlimit="10"/>
<path d="M1190.11 1104.76V1168L1235.82 1125.24V1062.01L1190.11 1104.76Z" stroke="#FBF9F7" stroke-opacity="0.05" stroke-miterlimit="10"/>
<path d="M1647.54 44.7511V107.99L1693.43 65.2338V2L1647.54 44.7511Z" stroke="#FBF9F7" stroke-opacity="0.05" stroke-miterlimit="10"/>
<path d="M1647.54 362.72V425.959L1693.43 383.203V319.969L1647.54 362.72Z" stroke="#FBF9F7" stroke-opacity="0.05" stroke-miterlimit="10"/>
<path d="M1647.54 680.798V744.037L1693.43 701.281V638.047L1647.54 680.798Z" stroke="#FBF9F7" stroke-opacity="0.05" stroke-miterlimit="10"/>
<path d="M1647.54 150.743V213.982L1693.43 171.226V107.992L1647.54 150.743Z" stroke="#FBF9F7" stroke-opacity="0.05" stroke-miterlimit="10"/>
<path d="M1647.54 468.712V531.951L1693.43 489.195V425.961L1647.54 468.712Z" stroke="#FBF9F7" stroke-opacity="0.05" stroke-miterlimit="10"/>
<path d="M1647.54 786.79V850.029L1693.43 807.273V744.039L1647.54 786.79Z" stroke="#FBF9F7" stroke-opacity="0.05" stroke-miterlimit="10"/>
<path d="M1647.54 998.771V1062.01L1693.43 1019.25V956.02L1647.54 998.771Z" stroke="#FBF9F7" stroke-opacity="0.05" stroke-miterlimit="10"/>
<path d="M1647.54 256.732V319.971L1693.43 277.214V213.98L1647.54 256.732Z" stroke="#FBF9F7" stroke-opacity="0.05" stroke-miterlimit="10"/>
<path d="M1647.54 574.748V638.052L1693.43 595.252V531.953L1647.54 574.748Z" stroke="#FBF9F7" stroke-opacity="0.05" stroke-miterlimit="10"/>
<path d="M1647.54 892.782V956.021L1693.43 913.265V850.031L1647.54 892.782Z" stroke="#FBF9F7" stroke-opacity="0.05" stroke-miterlimit="10"/>
<path d="M1647.54 1104.76V1168L1693.43 1125.24V1062.01L1647.54 1104.76Z" stroke="#FBF9F7" stroke-opacity="0.05" stroke-miterlimit="10"/>
<path d="M321.133 65.2338L367.213 107.99V44.7511L321.133 2V65.2338Z" stroke="#FBF9F7" stroke-opacity="0.05" stroke-miterlimit="10"/>
<path d="M321.133 383.203L367.213 425.959V362.72L321.133 319.969V383.203Z" stroke="#FBF9F7" stroke-opacity="0.05" stroke-miterlimit="10"/>
<path d="M321.133 701.281L367.213 744.037V680.798L321.133 638.047V701.281Z" stroke="#FBF9F7" stroke-opacity="0.05" stroke-miterlimit="10"/>
<path d="M321.133 171.226L367.213 213.982V150.743L321.133 107.992V171.226Z" stroke="#FBF9F7" stroke-opacity="0.05" stroke-miterlimit="10"/>
<path d="M321.133 489.195L367.213 531.951V468.712L321.133 425.961V489.195Z" stroke="#FBF9F7" stroke-opacity="0.05" stroke-miterlimit="10"/>
<path d="M321.133 807.273L367.213 850.029V786.79L321.133 744.039V807.273Z" stroke="#FBF9F7" stroke-opacity="0.05" stroke-miterlimit="10"/>
<path d="M321.133 1019.25L367.213 1062.01V998.771L321.133 956.02V1019.25Z" stroke="#FBF9F7" stroke-opacity="0.05" stroke-miterlimit="10"/>
<path d="M321.133 277.214L367.213 319.971V256.732L321.133 213.98V277.214Z" stroke="#FBF9F7" stroke-opacity="0.05" stroke-miterlimit="10"/>
<path d="M321.133 595.252L367.213 638.052V574.748L321.133 531.953V595.252Z" stroke="#FBF9F7" stroke-opacity="0.05" stroke-miterlimit="10"/>
<path d="M321.133 913.265L367.213 956.021V892.782L321.133 850.031V913.265Z" stroke="#FBF9F7" stroke-opacity="0.05" stroke-miterlimit="10"/>
<path d="M321.133 1125.24L367.213 1168V1104.76L321.133 1062.01V1125.24Z" stroke="#FBF9F7" stroke-opacity="0.05" stroke-miterlimit="10"/>
<path d="M275.422 44.7511V107.99L321.128 65.2338V2L275.422 44.7511Z" stroke="#FBF9F7" stroke-opacity="0.05" stroke-miterlimit="10"/>
<path d="M275.422 362.72V425.959L321.128 383.203V319.969L275.422 362.72Z" stroke="#FBF9F7" stroke-opacity="0.05" stroke-miterlimit="10"/>
<path d="M275.422 680.798V744.037L321.128 701.281V638.047L275.422 680.798Z" stroke="#FBF9F7" stroke-opacity="0.05" stroke-miterlimit="10"/>
<path d="M275.422 150.743V213.982L321.128 171.226V107.992L275.422 150.743Z" stroke="#FBF9F7" stroke-opacity="0.05" stroke-miterlimit="10"/>
<path d="M275.422 468.712V531.951L321.128 489.195V425.961L275.422 468.712Z" stroke="#FBF9F7" stroke-opacity="0.05" stroke-miterlimit="10"/>
<path d="M275.422 786.79V850.029L321.128 807.273V744.039L275.422 786.79Z" stroke="#FBF9F7" stroke-opacity="0.05" stroke-miterlimit="10"/>
<path d="M275.422 998.771V1062.01L321.128 1019.25V956.02L275.422 998.771Z" stroke="#FBF9F7" stroke-opacity="0.05" stroke-miterlimit="10"/>
<path d="M275.422 256.732V319.971L321.128 277.214V213.98L275.422 256.732Z" stroke="#FBF9F7" stroke-opacity="0.05" stroke-miterlimit="10"/>
<path d="M275.422 574.748V638.052L321.128 595.252V531.953L275.422 574.748Z" stroke="#FBF9F7" stroke-opacity="0.05" stroke-miterlimit="10"/>
<path d="M275.422 892.782V956.021L321.128 913.265V850.031L275.422 892.782Z" stroke="#FBF9F7" stroke-opacity="0.05" stroke-miterlimit="10"/>
<path d="M275.422 1104.76V1168L321.128 1125.25V1062.01L275.422 1104.76Z" stroke="#FBF9F7" stroke-opacity="0.05" stroke-miterlimit="10"/>
<path d="M1052.99 65.2338L1098.69 107.99V44.7511L1052.99 2V65.2338Z" stroke="#FBF9F7" stroke-opacity="0.05" stroke-miterlimit="10"/>
<path d="M1052.99 383.203L1098.69 425.959V362.72L1052.99 319.969V383.203Z" stroke="#FBF9F7" stroke-opacity="0.05" stroke-miterlimit="10"/>
<path d="M1052.99 701.281L1098.69 744.037V680.798L1052.99 638.047V701.281Z" stroke="#FBF9F7" stroke-opacity="0.05" stroke-miterlimit="10"/>
<path d="M1052.99 171.226L1098.69 213.982V150.743L1052.99 107.992V171.226Z" stroke="#FBF9F7" stroke-opacity="0.05" stroke-miterlimit="10"/>
<path d="M1052.99 489.195L1098.69 531.951V468.712L1052.99 425.961V489.195Z" stroke="#FBF9F7" stroke-opacity="0.05" stroke-miterlimit="10"/>
<path d="M1052.99 807.273L1098.69 850.029V786.79L1052.99 744.039V807.273Z" stroke="#FBF9F7" stroke-opacity="0.05" stroke-miterlimit="10"/>
<path d="M1052.99 1019.25L1098.69 1062.01V998.771L1052.99 956.02V1019.25Z" stroke="#FBF9F7" stroke-opacity="0.05" stroke-miterlimit="10"/>
<path d="M1052.99 277.214L1098.69 319.971V256.732L1052.99 213.98V277.214Z" stroke="#FBF9F7" stroke-opacity="0.05" stroke-miterlimit="10"/>
<path d="M1052.99 595.252L1098.69 638.052V574.748L1052.99 531.953V595.252Z" stroke="#FBF9F7" stroke-opacity="0.05" stroke-miterlimit="10"/>
<path d="M1052.99 913.265L1098.69 956.021V892.782L1052.99 850.031V913.265Z" stroke="#FBF9F7" stroke-opacity="0.05" stroke-miterlimit="10"/>
<path d="M1052.99 1125.25L1098.69 1168V1104.76L1052.99 1062.01V1125.25Z" stroke="#FBF9F7" stroke-opacity="0.05" stroke-miterlimit="10"/>
<path d="M1510.61 65.2338L1556.32 107.99V44.7511L1510.61 2V65.2338Z" stroke="#FBF9F7" stroke-opacity="0.05" stroke-miterlimit="10"/>
<path d="M1510.61 383.203L1556.32 425.959V362.72L1510.61 319.969V383.203Z" stroke="#FBF9F7" stroke-opacity="0.05" stroke-miterlimit="10"/>
<path d="M1510.61 701.281L1556.32 744.037V680.798L1510.61 638.047V701.281Z" stroke="#FBF9F7" stroke-opacity="0.05" stroke-miterlimit="10"/>
<path d="M1510.61 171.226L1556.32 213.982V150.743L1510.61 107.992V171.226Z" stroke="#FBF9F7" stroke-opacity="0.05" stroke-miterlimit="10"/>
<path d="M1510.61 489.195L1556.32 531.951V468.712L1510.61 425.961V489.195Z" stroke="#FBF9F7" stroke-opacity="0.05" stroke-miterlimit="10"/>
<path d="M1510.61 807.273L1556.32 850.029V786.79L1510.61 744.039V807.273Z" stroke="#FBF9F7" stroke-opacity="0.05" stroke-miterlimit="10"/>
<path d="M1510.61 1019.25L1556.32 1062.01V998.771L1510.61 956.02V1019.25Z" stroke="#FBF9F7" stroke-opacity="0.05" stroke-miterlimit="10"/>
<path d="M1510.61 277.214L1556.32 319.971V256.732L1510.61 213.98V277.214Z" stroke="#FBF9F7" stroke-opacity="0.05" stroke-miterlimit="10"/>
<path d="M1510.61 595.252L1556.32 638.052V574.748L1510.61 531.953V595.252Z" stroke="#FBF9F7" stroke-opacity="0.05" stroke-miterlimit="10"/>
<path d="M1510.61 913.265L1556.32 956.021V892.782L1510.61 850.031V913.265Z" stroke="#FBF9F7" stroke-opacity="0.05" stroke-miterlimit="10"/>
<path d="M1510.61 1125.24L1556.32 1168V1104.76L1510.61 1062.01V1125.24Z" stroke="#FBF9F7" stroke-opacity="0.05" stroke-miterlimit="10"/>
<path d="M1007.09 44.7511V107.99L1052.99 65.2338V2L1007.09 44.7511Z" stroke="#FBF9F7" stroke-opacity="0.05" stroke-miterlimit="10"/>
<path d="M1007.09 362.72V425.959L1052.99 383.203V319.969L1007.09 362.72Z" stroke="#FBF9F7" stroke-opacity="0.05" stroke-miterlimit="10"/>
<path d="M1007.09 680.798V744.037L1052.99 701.281V638.047L1007.09 680.798Z" stroke="#FBF9F7" stroke-opacity="0.05" stroke-miterlimit="10"/>
<path d="M1007.09 150.743V213.982L1052.99 171.226V107.992L1007.09 150.743Z" stroke="#FBF9F7" stroke-opacity="0.05" stroke-miterlimit="10"/>
<path d="M1007.09 468.712V531.951L1052.99 489.195V425.961L1007.09 468.712Z" stroke="#FBF9F7" stroke-opacity="0.05" stroke-miterlimit="10"/>
<path d="M1007.09 786.79V850.029L1052.99 807.273V744.039L1007.09 786.79Z" stroke="#FBF9F7" stroke-opacity="0.05" stroke-miterlimit="10"/>
<path d="M1007.09 998.771V1062.01L1052.99 1019.25V956.02L1007.09 998.771Z" stroke="#FBF9F7" stroke-opacity="0.05" stroke-miterlimit="10"/>
<path d="M1007.09 256.732V319.971L1052.99 277.214V213.98L1007.09 256.732Z" stroke="#FBF9F7" stroke-opacity="0.05" stroke-miterlimit="10"/>
<path d="M1007.09 574.748V638.052L1052.99 595.252V531.953L1007.09 574.748Z" stroke="#FBF9F7" stroke-opacity="0.05" stroke-miterlimit="10"/>
<path d="M1007.09 892.782V956.021L1052.99 913.265V850.031L1007.09 892.782Z" stroke="#FBF9F7" stroke-opacity="0.05" stroke-miterlimit="10"/>
<path d="M1007.09 1104.76V1168L1052.99 1125.24V1062.01L1007.09 1104.76Z" stroke="#FBF9F7" stroke-opacity="0.05" stroke-miterlimit="10"/>
<path d="M1464.53 44.7511V107.99L1510.61 65.2338V2L1464.53 44.7511Z" stroke="#FBF9F7" stroke-opacity="0.05" stroke-miterlimit="10"/>
<path d="M1464.53 362.72V425.959L1510.61 383.203V319.969L1464.53 362.72Z" stroke="#FBF9F7" stroke-opacity="0.05" stroke-miterlimit="10"/>
<path d="M1464.53 680.798V744.037L1510.61 701.281V638.047L1464.53 680.798Z" stroke="#FBF9F7" stroke-opacity="0.05" stroke-miterlimit="10"/>
<path d="M1464.53 150.743V213.982L1510.61 171.226V107.992L1464.53 150.743Z" stroke="#FBF9F7" stroke-opacity="0.05" stroke-miterlimit="10"/>
<path d="M1464.53 468.712V531.951L1510.61 489.195V425.961L1464.53 468.712Z" stroke="#FBF9F7" stroke-opacity="0.05" stroke-miterlimit="10"/>
<path d="M1464.53 786.79V850.029L1510.61 807.273V744.039L1464.53 786.79Z" stroke="#FBF9F7" stroke-opacity="0.05" stroke-miterlimit="10"/>
<path d="M1464.53 998.771V1062.01L1510.61 1019.25V956.02L1464.53 998.771Z" stroke="#FBF9F7" stroke-opacity="0.05" stroke-miterlimit="10"/>
<path d="M1464.53 256.732V319.971L1510.61 277.214V213.98L1464.53 256.732Z" stroke="#FBF9F7" stroke-opacity="0.05" stroke-miterlimit="10"/>
<path d="M1464.53 574.748V638.052L1510.61 595.252V531.953L1464.53 574.748Z" stroke="#FBF9F7" stroke-opacity="0.05" stroke-miterlimit="10"/>
<path d="M1464.53 892.782V956.021L1510.61 913.265V850.031L1464.53 892.782Z" stroke="#FBF9F7" stroke-opacity="0.05" stroke-miterlimit="10"/>
<path d="M1464.53 1104.76V1168L1510.61 1125.24V1062.01L1464.53 1104.76Z" stroke="#FBF9F7" stroke-opacity="0.05" stroke-miterlimit="10"/>
<path d="M687.152 65.2338L732.858 107.99V44.7511L687.152 2V65.2338Z" stroke="#FBF9F7" stroke-opacity="0.05" stroke-miterlimit="10"/>
<path d="M687.152 383.203L732.858 425.959V362.72L687.152 319.969V383.203Z" stroke="#FBF9F7" stroke-opacity="0.05" stroke-miterlimit="10"/>
<path d="M687.152 701.281L732.858 744.037V680.798L687.152 638.047V701.281Z" stroke="#FBF9F7" stroke-opacity="0.05" stroke-miterlimit="10"/>
<path d="M687.152 171.226L732.858 213.982V150.743L687.152 107.992V171.226Z" stroke="#FBF9F7" stroke-opacity="0.05" stroke-miterlimit="10"/>
<path d="M687.152 489.195L732.858 531.951V468.712L687.152 425.961V489.195Z" stroke="#FBF9F7" stroke-opacity="0.05" stroke-miterlimit="10"/>
<path d="M687.152 807.273L732.858 850.029V786.79L687.152 744.039V807.273Z" stroke="#FBF9F7" stroke-opacity="0.05" stroke-miterlimit="10"/>
<path d="M687.152 1019.25L732.858 1062.01V998.771L687.152 956.02V1019.25Z" stroke="#FBF9F7" stroke-opacity="0.05" stroke-miterlimit="10"/>
<path d="M687.152 277.214L732.858 319.971V256.732L687.152 213.98V277.214Z" stroke="#FBF9F7" stroke-opacity="0.05" stroke-miterlimit="10"/>
<path d="M687.152 595.252L732.858 638.052V574.748L687.152 531.953V595.252Z" stroke="#FBF9F7" stroke-opacity="0.05" stroke-miterlimit="10"/>
<path d="M687.152 913.265L732.858 956.021V892.782L687.152 850.031V913.265Z" stroke="#FBF9F7" stroke-opacity="0.05" stroke-miterlimit="10"/>
<path d="M687.152 1125.25L732.858 1168V1104.76L687.152 1062.01V1125.25Z" stroke="#FBF9F7" stroke-opacity="0.05" stroke-miterlimit="10"/>
<path d="M641.258 44.7511V107.99L687.151 65.2338V2L641.258 44.7511Z" stroke="#FBF9F7" stroke-opacity="0.05" stroke-miterlimit="10"/>
<path d="M641.258 362.72V425.959L687.151 383.203V319.969L641.258 362.72Z" stroke="#FBF9F7" stroke-opacity="0.05" stroke-miterlimit="10"/>
<path d="M641.258 680.798V744.037L687.151 701.281V638.047L641.258 680.798Z" stroke="#FBF9F7" stroke-opacity="0.05" stroke-miterlimit="10"/>
<path d="M641.258 150.743V213.982L687.151 171.226V107.992L641.258 150.743Z" stroke="#FBF9F7" stroke-opacity="0.05" stroke-miterlimit="10"/>
<path d="M641.258 468.712V531.951L687.151 489.195V425.961L641.258 468.712Z" stroke="#FBF9F7" stroke-opacity="0.05" stroke-miterlimit="10"/>
<path d="M641.258 786.79V850.029L687.151 807.273V744.039L641.258 786.79Z" stroke="#FBF9F7" stroke-opacity="0.05" stroke-miterlimit="10"/>
<path d="M641.258 998.771V1062.01L687.151 1019.25V956.02L641.258 998.771Z" stroke="#FBF9F7" stroke-opacity="0.05" stroke-miterlimit="10"/>
<path d="M641.258 256.732V319.971L687.151 277.214V213.98L641.258 256.732Z" stroke="#FBF9F7" stroke-opacity="0.05" stroke-miterlimit="10"/>
<path d="M641.258 574.748V638.052L687.151 595.252V531.953L641.258 574.748Z" stroke="#FBF9F7" stroke-opacity="0.05" stroke-miterlimit="10"/>
<path d="M641.258 892.782V956.021L687.151 913.265V850.031L641.258 892.782Z" stroke="#FBF9F7" stroke-opacity="0.05" stroke-miterlimit="10"/>
<path d="M641.258 1104.76V1168L687.151 1125.24V1062.01L641.258 1104.76Z" stroke="#FBF9F7" stroke-opacity="0.05" stroke-miterlimit="10"/>
<path d="M1418.82 65.2338L1464.53 107.99V44.7511L1418.82 2V65.2338Z" stroke="#FBF9F7" stroke-opacity="0.05" stroke-miterlimit="10"/>
<path d="M1418.82 383.203L1464.53 425.959V362.72L1418.82 319.969V383.203Z" stroke="#FBF9F7" stroke-opacity="0.05" stroke-miterlimit="10"/>
<path d="M1418.82 701.281L1464.53 744.037V680.798L1418.82 638.047V701.281Z" stroke="#FBF9F7" stroke-opacity="0.05" stroke-miterlimit="10"/>
<path d="M1418.82 171.226L1464.53 213.982V150.743L1418.82 107.992V171.226Z" stroke="#FBF9F7" stroke-opacity="0.05" stroke-miterlimit="10"/>
<path d="M1418.82 489.195L1464.53 531.951V468.712L1418.82 425.961V489.195Z" stroke="#FBF9F7" stroke-opacity="0.05" stroke-miterlimit="10"/>
<path d="M1418.82 807.273L1464.53 850.029V786.79L1418.82 744.039V807.273Z" stroke="#FBF9F7" stroke-opacity="0.05" stroke-miterlimit="10"/>
<path d="M1418.82 1019.25L1464.53 1062.01V998.771L1418.82 956.02V1019.25Z" stroke="#FBF9F7" stroke-opacity="0.05" stroke-miterlimit="10"/>
<path d="M1418.82 277.214L1464.53 319.971V256.732L1418.82 213.98V277.214Z" stroke="#FBF9F7" stroke-opacity="0.05" stroke-miterlimit="10"/>
<path d="M1418.82 595.252L1464.53 638.052V574.748L1418.82 531.953V595.252Z" stroke="#FBF9F7" stroke-opacity="0.05" stroke-miterlimit="10"/>
<path d="M1418.82 913.265L1464.53 956.021V892.782L1418.82 850.031V913.265Z" stroke="#FBF9F7" stroke-opacity="0.05" stroke-miterlimit="10"/>
<path d="M1418.82 1125.25L1464.53 1168V1104.76L1418.82 1062.01V1125.25Z" stroke="#FBF9F7" stroke-opacity="0.05" stroke-miterlimit="10"/>
<path d="M1876.45 65.2338L1922.15 107.99V44.7511L1876.45 2V65.2338Z" stroke="#FBF9F7" stroke-opacity="0.05" stroke-miterlimit="10"/>
<path d="M1876.45 383.203L1922.15 425.959V362.72L1876.45 319.969V383.203Z" stroke="#FBF9F7" stroke-opacity="0.05" stroke-miterlimit="10"/>
<path d="M1876.45 701.281L1922.15 744.037V680.798L1876.45 638.047V701.281Z" stroke="#FBF9F7" stroke-opacity="0.05" stroke-miterlimit="10"/>
<path d="M1876.45 171.226L1922.15 213.982V150.743L1876.45 107.992V171.226Z" stroke="#FBF9F7" stroke-opacity="0.05" stroke-miterlimit="10"/>
<path d="M1876.45 489.195L1922.15 531.951V468.712L1876.45 425.961V489.195Z" stroke="#FBF9F7" stroke-opacity="0.05" stroke-miterlimit="10"/>
<path d="M1876.45 807.273L1922.15 850.029V786.79L1876.45 744.039V807.273Z" stroke="#FBF9F7" stroke-opacity="0.05" stroke-miterlimit="10"/>
<path d="M1876.45 1019.25L1922.15 1062.01V998.771L1876.45 956.02V1019.25Z" stroke="#FBF9F7" stroke-opacity="0.05" stroke-miterlimit="10"/>
<path d="M1876.45 277.214L1922.15 319.971V256.732L1876.45 213.98V277.214Z" stroke="#FBF9F7" stroke-opacity="0.05" stroke-miterlimit="10"/>
<path d="M1876.45 595.252L1922.15 638.052V574.748L1876.45 531.953V595.252Z" stroke="#FBF9F7" stroke-opacity="0.05" stroke-miterlimit="10"/>
<path d="M1876.45 913.265L1922.15 956.021V892.782L1876.45 850.031V913.265Z" stroke="#FBF9F7" stroke-opacity="0.05" stroke-miterlimit="10"/>
<path d="M1876.45 1125.24L1922.15 1168V1104.76L1876.45 1062.01V1125.24Z" stroke="#FBF9F7" stroke-opacity="0.05" stroke-miterlimit="10"/>
<path d="M1373.12 44.7511V107.99L1418.82 65.2338V2L1373.12 44.7511Z" stroke="#FBF9F7" stroke-opacity="0.05" stroke-miterlimit="10"/>
<path d="M1373.12 362.72V425.959L1418.82 383.203V319.969L1373.12 362.72Z" stroke="#FBF9F7" stroke-opacity="0.05" stroke-miterlimit="10"/>
<path d="M1373.12 680.798V744.037L1418.82 701.281V638.047L1373.12 680.798Z" stroke="#FBF9F7" stroke-opacity="0.05" stroke-miterlimit="10"/>
<path d="M1373.12 150.743V213.982L1418.82 171.226V107.992L1373.12 150.743Z" stroke="#FBF9F7" stroke-opacity="0.05" stroke-miterlimit="10"/>
<path d="M1373.12 468.712V531.951L1418.82 489.195V425.961L1373.12 468.712Z" stroke="#FBF9F7" stroke-opacity="0.05" stroke-miterlimit="10"/>
<path d="M1373.12 786.79V850.029L1418.82 807.273V744.039L1373.12 786.79Z" stroke="#FBF9F7" stroke-opacity="0.05" stroke-miterlimit="10"/>
<path d="M1373.12 998.771V1062.01L1418.82 1019.25V956.02L1373.12 998.771Z" stroke="#FBF9F7" stroke-opacity="0.05" stroke-miterlimit="10"/>
<path d="M1373.12 256.732V319.971L1418.82 277.214V213.98L1373.12 256.732Z" stroke="#FBF9F7" stroke-opacity="0.05" stroke-miterlimit="10"/>
<path d="M1373.12 574.748V638.052L1418.82 595.252V531.953L1373.12 574.748Z" stroke="#FBF9F7" stroke-opacity="0.05" stroke-miterlimit="10"/>
<path d="M1373.12 892.782V956.021L1418.82 913.265V850.031L1373.12 892.782Z" stroke="#FBF9F7" stroke-opacity="0.05" stroke-miterlimit="10"/>
<path d="M1373.12 1104.76V1168L1418.82 1125.25V1062.01L1373.12 1104.76Z" stroke="#FBF9F7" stroke-opacity="0.05" stroke-miterlimit="10"/>
<path d="M1830.55 44.7511V107.99L1876.45 65.2338V2L1830.55 44.7511Z" stroke="#FBF9F7" stroke-opacity="0.05" stroke-miterlimit="10"/>
<path d="M1830.55 362.72V425.959L1876.45 383.203V319.969L1830.55 362.72Z" stroke="#FBF9F7" stroke-opacity="0.05" stroke-miterlimit="10"/>
<path d="M1830.55 680.798V744.037L1876.45 701.281V638.047L1830.55 680.798Z" stroke="#FBF9F7" stroke-opacity="0.05" stroke-miterlimit="10"/>
<path d="M1830.55 150.743V213.982L1876.45 171.226V107.992L1830.55 150.743Z" stroke="#FBF9F7" stroke-opacity="0.05" stroke-miterlimit="10"/>
<path d="M1830.55 468.712V531.951L1876.45 489.195V425.961L1830.55 468.712Z" stroke="#FBF9F7" stroke-opacity="0.05" stroke-miterlimit="10"/>
<path d="M1830.55 786.79V850.029L1876.45 807.273V744.039L1830.55 786.79Z" stroke="#FBF9F7" stroke-opacity="0.05" stroke-miterlimit="10"/>
<path d="M1830.55 998.771V1062.01L1876.45 1019.25V956.02L1830.55 998.771Z" stroke="#FBF9F7" stroke-opacity="0.05" stroke-miterlimit="10"/>
<path d="M1830.55 256.732V319.971L1876.45 277.214V213.98L1830.55 256.732Z" stroke="#FBF9F7" stroke-opacity="0.05" stroke-miterlimit="10"/>
<path d="M1830.55 574.748V638.052L1876.45 595.252V531.953L1830.55 574.748Z" stroke="#FBF9F7" stroke-opacity="0.05" stroke-miterlimit="10"/>
<path d="M1830.55 892.782V956.021L1876.45 913.265V850.031L1830.55 892.782Z" stroke="#FBF9F7" stroke-opacity="0.05" stroke-miterlimit="10"/>
<path d="M1830.55 1104.76V1168L1876.45 1125.24V1062.01L1830.55 1104.76Z" stroke="#FBF9F7" stroke-opacity="0.05" stroke-miterlimit="10"/>
</svg>
