<svg width="32" height="32" viewBox="0 0 32 32" fill="none" xmlns="http://www.w3.org/2000/svg">
<path d="M12.1867 22.3597C12.1867 22.3597 10.6667 17.5597 13.4533 14.6663C14.6396 13.6793 15.9427 12.8419 17.3333 12.173C17.3315 10.9594 17.6761 9.77046 18.3268 8.74602C18.9775 7.72159 19.9072 6.90424 21.0065 6.39007C22.1058 5.8759 23.3291 5.68629 24.5325 5.84354C25.7358 6.00079 26.8693 6.49836 27.7996 7.27774C28.7299 8.05712 29.4183 9.08592 29.7839 10.2432C30.1495 11.4004 30.1771 12.638 29.8635 13.8103C29.5498 14.9827 28.9079 16.0412 28.0133 16.8613C27.1187 17.6813 26.0085 18.2289 24.8133 18.4397C22.3733 22.133 17.04 28.7197 9.70667 28.7197C5.81333 28.7197 2 17.333 2 12.173V5.973C2.00232 5.20308 2.29926 4.46325 2.82987 3.90537C3.36047 3.34749 4.0845 3.01387 4.85333 2.973C7.16 2.853 10.1867 2.973 10.9067 4.533C12 6.813 9.64 10.9063 7.09333 10.9063C7.09333 12.9063 9.53333 17.253 11.7467 19.653" stroke="#EDA708" stroke-width="2" stroke-miterlimit="10"/>
</svg>
