<svg width="41" height="40" viewBox="0 0 41 40" fill="none" xmlns="http://www.w3.org/2000/svg">
<path d="M37.0334 11.0333C36.8643 10.6261 36.5406 10.3025 36.1334 10.1333C35.933 10.0479 35.7179 10.0026 35.5001 10H27.1667C26.7247 10 26.3008 10.1756 25.9882 10.4882C25.6757 10.8007 25.5001 11.2246 25.5001 11.6667C25.5001 12.1087 25.6757 12.5326 25.9882 12.8452C26.3008 13.1577 26.7247 13.3333 27.1667 13.3333H31.4834L22.1667 22.65L16.6834 17.15C16.5285 16.9938 16.3441 16.8698 16.141 16.7852C15.9379 16.7006 15.7201 16.657 15.5001 16.657C15.28 16.657 15.0622 16.7006 14.8591 16.7852C14.656 16.8698 14.4717 16.9938 14.3167 17.15L4.31673 27.15C4.16051 27.3049 4.03652 27.4893 3.95191 27.6924C3.86729 27.8955 3.82373 28.1133 3.82373 28.3333C3.82373 28.5534 3.86729 28.7712 3.95191 28.9743C4.03652 29.1774 4.16051 29.3617 4.31673 29.5167C4.47167 29.6729 4.656 29.7969 4.8591 29.8815C5.0622 29.9661 5.28004 30.0097 5.50006 30.0097C5.72008 30.0097 5.93792 29.9661 6.14102 29.8815C6.34412 29.7969 6.52846 29.6729 6.68339 29.5167L15.5001 20.6833L20.9834 26.1833C21.1383 26.3395 21.3227 26.4635 21.5258 26.5482C21.7289 26.6328 21.9467 26.6763 22.1667 26.6763C22.3867 26.6763 22.6046 26.6328 22.8077 26.5482C23.0108 26.4635 23.1951 26.3395 23.3501 26.1833L33.8334 15.6833V20C33.8334 20.442 34.009 20.866 34.3215 21.1785C34.6341 21.4911 35.058 21.6667 35.5001 21.6667C35.9421 21.6667 36.366 21.4911 36.6786 21.1785C36.9911 20.866 37.1667 20.442 37.1667 20V11.6667C37.1641 11.4489 37.1188 11.2337 37.0334 11.0333V11.0333Z" fill="#EDA708"/>
</svg>
