<svg width="40" height="40" viewBox="0 0 40 40" fill="none" xmlns="http://www.w3.org/2000/svg">
<path d="M4.16667 14.7667L19.1667 23.4334C19.42 23.5796 19.7074 23.6567 20 23.6567C20.2926 23.6567 20.58 23.5796 20.8333 23.4334L35.8333 14.7667C36.0852 14.6213 36.2947 14.4125 36.4409 14.161C36.5871 13.9096 36.6649 13.6242 36.6667 13.3334C36.6678 13.0397 36.5914 12.7509 36.445 12.4963C36.2987 12.2416 36.0877 12.0302 35.8333 11.8834L20.8333 3.23336C20.58 3.08708 20.2926 3.01007 20 3.01007C19.7074 3.01007 19.42 3.08708 19.1667 3.23336L4.16667 11.8834C3.91233 12.0302 3.7013 12.2416 3.55496 12.4963C3.40862 12.7509 3.33217 13.0397 3.33333 13.3334C3.33509 13.6242 3.41293 13.9096 3.55912 14.161C3.70532 14.4125 3.91477 14.6213 4.16667 14.7667V14.7667ZM20 6.6667L31.6667 13.3334L20 20L8.33333 13.3334L20 6.6667ZM34.1667 18.6167L20 26.6667L5.83333 18.55C5.64311 18.4398 5.43297 18.3684 5.215 18.3397C4.99704 18.3111 4.77556 18.3258 4.56333 18.3832C4.35109 18.4405 4.1523 18.5392 3.97838 18.6737C3.80447 18.8082 3.65888 18.9757 3.55 19.1667C3.33271 19.5494 3.2756 20.0025 3.39113 20.4271C3.50666 20.8518 3.78545 21.2135 4.16667 21.4334L19.1667 30.1C19.42 30.2463 19.7074 30.3233 20 30.3233C20.2926 30.3233 20.58 30.2463 20.8333 30.1L35.8333 21.4334C36.2146 21.2135 36.4933 20.8518 36.6089 20.4271C36.7244 20.0025 36.6673 19.5494 36.45 19.1667C36.3411 18.9757 36.1955 18.8082 36.0216 18.6737C35.8477 18.5392 35.6489 18.4405 35.4367 18.3832C35.2244 18.3258 35.003 18.3111 34.785 18.3397C34.567 18.3684 34.3569 18.4398 34.1667 18.55V18.6167ZM34.1667 25.2834L20 33.3334L5.83333 25.2167C5.64311 25.1065 5.43297 25.035 5.215 25.0064C4.99704 24.9777 4.77556 24.9925 4.56333 25.0498C4.35109 25.1071 4.1523 25.2059 3.97838 25.3404C3.80447 25.4748 3.65888 25.6424 3.55 25.8334C3.33271 26.2161 3.2756 26.6692 3.39113 27.0938C3.50666 27.5184 3.78545 27.8802 4.16667 28.1L19.1667 36.7667C19.42 36.913 19.7074 36.99 20 36.99C20.2926 36.99 20.58 36.913 20.8333 36.7667L35.8333 28.1C36.2146 27.8802 36.4933 27.5184 36.6089 27.0938C36.7244 26.6692 36.6673 26.2161 36.45 25.8334C36.3411 25.6424 36.1955 25.4748 36.0216 25.3404C35.8477 25.2059 35.6489 25.1071 35.4367 25.0498C35.2244 24.9925 35.003 24.9777 34.785 25.0064C34.567 25.035 34.3569 25.1065 34.1667 25.2167V25.2834Z" fill="#EDA708"/>
</svg>
