<svg width="285" height="32" viewBox="0 0 285 32" fill="none" xmlns="http://www.w3.org/2000/svg">
<path d="M6.1333 32L0 25.8667L18.5898 7.27547L27.2645 15.9502L37.2805 5.93137L34.3466 2.99884L49.3494 0L46.3506 14.9972L43.4138 12.0647L27.2645 28.2168L18.5898 19.5421L6.1333 32Z" fill="#EDA708"/>
<path d="M37.2809 5.93137L27.2649 15.9502L24.6614 13.3467V25.6132L27.2649 28.2168L43.4142 12.0647L46.351 14.9972L49.3499 0L34.3471 2.99884L37.2809 5.93137Z" fill="#DA9705"/>
<path d="M78.5156 22.3516H71.4453V17.0586H78.5156C79.4792 17.0586 80.2604 16.8958 80.8594 16.5703C81.4583 16.2448 81.8945 15.7956 82.168 15.2227C82.4544 14.6367 82.5977 13.9792 82.5977 13.25C82.5977 12.4688 82.4544 11.7461 82.168 11.082C81.8945 10.418 81.4583 9.88411 80.8594 9.48047C80.2604 9.0638 79.4792 8.85547 78.5156 8.85547H74.0234V32H67.168V3.5625H78.5156C80.7943 3.5625 82.7539 3.97917 84.3945 4.8125C86.0482 5.64583 87.3177 6.79167 88.2031 8.25C89.0885 9.69531 89.5312 11.349 89.5312 13.2109C89.5312 15.0469 89.0885 16.6484 88.2031 18.0156C87.3177 19.3828 86.0482 20.4505 84.3945 21.2188C82.7539 21.974 80.7943 22.3516 78.5156 22.3516ZM93.2975 7.82812H102.81C104.67 7.82812 106.285 8.10482 107.658 8.6582C109.03 9.21159 110.087 10.0306 110.829 11.1152C111.581 12.1999 111.958 13.5391 111.958 15.1328C111.958 16.5163 111.742 17.6729 111.31 18.6025C110.879 19.5322 110.275 20.3014 109.501 20.9102C108.737 21.5078 107.846 22.0003 106.828 22.3877L104.919 23.4668H96.9332L96.9 18.9678H102.81C103.552 18.9678 104.166 18.835 104.653 18.5693C105.14 18.3037 105.505 17.9274 105.749 17.4404C106.003 16.9424 106.13 16.3503 106.13 15.6641C106.13 14.9668 106.003 14.3691 105.749 13.8711C105.494 13.373 105.118 12.9912 104.62 12.7256C104.133 12.46 103.53 12.3271 102.81 12.3271H99.1246V32H93.2975V7.82812ZM106.529 32L101.183 21.3086L107.359 21.2754L112.771 31.751V32H106.529ZM122.01 7.82812V32H116.199V7.82812H122.01ZM129.339 7.82812H134.087L139.482 24.6455L144.878 7.82812H149.626L141.408 32H137.557L129.339 7.82812ZM126.45 7.82812H131.364L132.277 26.3555V32H126.45V7.82812ZM147.601 7.82812H152.531V32H146.687V26.3555L147.601 7.82812ZM173.241 27.5176V32H160.358V27.5176H173.241ZM162.434 7.82812V32H156.607V7.82812H162.434ZM171.581 17.4238V21.7568H160.358V17.4238H171.581ZM173.291 7.82812V12.3271H160.358V7.82812H173.291ZM195.487 7.82812V32H189.66V7.82812H195.487ZM202.758 7.82812V12.3271H182.554V7.82812H202.758ZM213.79 12.9082L207.896 32H201.637L210.519 7.82812H214.487L213.79 12.9082ZM218.67 32L212.76 12.9082L211.997 7.82812H216.014L224.946 32H218.67ZM218.438 22.9854V27.4844H206.037V22.9854H218.438Z" fill="white"/>
<path d="M232.126 7.82812L236.077 15.8633L240.028 7.82812H246.669L239.928 19.8145L246.851 32H240.144L236.077 23.8154L232.009 32H225.286L232.225 19.8145L225.468 7.82812H232.126Z" fill="#EDA708"/>
</svg>
