<svg width="40" height="41" viewBox="0 0 40 41" fill="none" xmlns="http://www.w3.org/2000/svg">
<path d="M29.9998 7.79913C27.3476 5.14696 23.7505 3.65699 19.9998 3.65699C16.2491 3.65699 12.652 5.14696 9.9998 7.79913C7.34764 10.4513 5.85767 14.0484 5.85767 17.7991C5.85767 21.5499 7.34764 25.147 9.9998 27.7991L18.7831 36.5991C18.9381 36.7553 19.1224 36.8793 19.3255 36.9639C19.5286 37.0486 19.7464 37.0921 19.9665 37.0921C20.1865 37.0921 20.4043 37.0486 20.6074 36.9639C20.8105 36.8793 20.9949 36.7553 21.1498 36.5991L29.9998 27.7158C32.6409 25.0747 34.1246 21.4925 34.1246 17.7575C34.1246 14.0224 32.6409 10.4403 29.9998 7.79913V7.79913ZM27.6165 25.3325L19.9998 32.9825L12.3831 25.3325C10.8784 23.8263 9.85393 21.9079 9.43929 19.8196C9.02466 17.7313 9.23845 15.567 10.0536 13.6003C10.8688 11.6335 12.2488 9.95254 14.0192 8.76992C15.7895 7.5873 17.8708 6.95609 19.9998 6.95609C22.1288 6.95609 24.2101 7.5873 25.9804 8.76992C27.7508 9.95254 29.1308 11.6335 29.946 13.6003C30.7612 15.567 30.9749 17.7313 30.5603 19.8196C30.1457 21.9079 29.1212 23.8263 27.6165 25.3325V25.3325ZM14.9998 12.6825C13.6543 14.0321 12.8988 15.8601 12.8988 17.7658C12.8988 19.6715 13.6543 21.4995 14.9998 22.8491C15.9994 23.8504 17.2724 24.5343 18.6592 24.8148C20.046 25.0953 21.4847 24.9601 22.7949 24.426C24.1051 23.892 25.2284 22.9829 26.0239 21.8129C26.8194 20.6428 27.2517 19.2639 27.2665 17.8491C27.274 16.9045 27.092 15.9679 26.7313 15.0948C26.3706 14.2217 25.8385 13.4297 25.1665 12.7658C24.5059 12.0901 23.7183 11.5517 22.8488 11.1816C21.9794 10.8114 21.0454 10.6169 20.1005 10.6092C19.1556 10.6014 18.2185 10.7806 17.3431 11.1364C16.4677 11.4923 15.6713 12.0177 14.9998 12.6825V12.6825ZM22.8165 20.4825C22.1849 21.1237 21.3502 21.5256 20.455 21.6195C19.5599 21.7135 18.6599 21.4935 17.909 20.9973C17.1581 20.5012 16.6028 19.7595 16.3381 18.8993C16.0735 18.039 16.1159 17.1135 16.4581 16.2811C16.8002 15.4486 17.421 14.7608 18.2141 14.3354C19.0073 13.9099 19.9236 13.7731 20.8064 13.9485C21.6892 14.1238 22.4837 14.6004 23.054 15.2967C23.6243 15.993 23.9351 16.8657 23.9331 17.7658C23.9089 18.7946 23.4773 19.7717 22.7331 20.4825H22.8165Z" fill="#BABABA"/>
</svg>
