<svg width="32" height="32" viewBox="0 0 32 32" fill="none" xmlns="http://www.w3.org/2000/svg">
<path d="M2 19.8535H4.54667L11.2133 23.6802C12.6722 24.5085 14.3224 24.9405 16 24.9335" stroke="#EDA708" stroke-width="2" stroke-miterlimit="10"/>
<path d="M25.5469 20.9468L27.4535 19.8535H30.0002" stroke="#EDA708" stroke-width="2" stroke-miterlimit="10"/>
<path d="M15.9997 24.9336C17.6683 24.936 19.3087 24.5041 20.7597 23.6803L23.4264 22.1203L18.5197 14.7603L14.9864 15.6403C14.6411 15.7211 14.2876 15.7614 13.9331 15.7603C13.2623 15.7604 12.6006 15.6052 11.9997 15.307C11.6579 15.1387 11.3717 14.8757 11.1752 14.5493C10.9787 14.2229 10.8802 13.8468 10.8915 13.466C10.9027 13.0852 11.0232 12.7157 11.2386 12.4014C11.454 12.0872 11.7553 11.8415 12.1064 11.6936L18.8797 8.80031C19.6455 8.4751 20.4801 8.34506 21.3085 8.42185C22.137 8.49864 22.9334 8.77987 23.6264 9.24031L26.1864 10.9336H29.9997" stroke="#EDA708" stroke-width="2" stroke-miterlimit="10"/>
<path d="M2 10.9336H5.81333L8.37333 9.24031C9.06631 8.77987 9.86274 8.49864 10.6912 8.42185C11.5196 8.34506 12.3542 8.4751 13.12 8.80031L16 10.0403" stroke="#EDA708" stroke-width="2" stroke-miterlimit="10"/>
<path d="M30 8.40039V22.4004" stroke="#EDA708" stroke-width="2" stroke-miterlimit="10"/>
<path d="M2 8.40039V22.4004" stroke="#EDA708" stroke-width="2" stroke-miterlimit="10"/>
</svg>
