<svg xmlns="http://www.w3.org/2000/svg" width="25" height="25" fill="none"><path fill="#F7F7F7" d="M19.94 13.678c-.22 0-.45-.07-.67-.12a9.425 9.425 0 0 1-1.31-.39 2 2 0 0 0-2.48 1l-.22.45a12.177 12.177 0 0 1-2.66-2 12.178 12.178 0 0 1-2-2.66l.42-.28a2 2 0 0 0 1-2.48 10.32 10.32 0 0 1-.39-1.31c-.05-.22-.09-.45-.12-.68a3 3 0 0 0-3-2.49h-3a3 3 0 0 0-3 3.41 19 19 0 0 0 16.52 16.46h.38a3 3 0 0 0 2.741-1.778c.173-.388.26-.808.259-1.232v-3a3 3 0 0 0-2.47-2.9Zm.5 6a1.001 1.001 0 0 1-.723.962c-.142.043-.29.056-.437.038A17 17 0 0 1 4.57 5.898a1.09 1.09 0 0 1 .25-.82 1 1 0 0 1 .75-.34h3a1 1 0 0 1 1 .79c.04.273.09.543.15.81.115.527.27 1.045.46 1.55l-1.4.65a1 1 0 0 0-.49 1.33 14.49 14.49 0 0 0 7 7 1 1 0 0 0 .76 0 .999.999 0 0 0 .57-.52l.62-1.4a13.68 13.68 0 0 0 1.58.46c.267.06.537.11.81.15a1 1 0 0 1 .79 1l.02 3.12Z"/></svg>