<svg width="651" height="447" viewBox="0 0 651 447" fill="none" xmlns="http://www.w3.org/2000/svg">
<path d="M-1 351.118L31.4346 332.403L-0.135559 314.183L-0.423706 314.022V276.568L-1 276.234L-0.423706 275.899V238.457L31.4115 220.076L-0.170105 201.844L-0.458252 201.683V162.915L32.8408 182.138L33.1289 182.299V219.085L33.152 219.073V257.184L63.3966 274.643C63.6732 274.367 64.0306 274.159 64.4224 274.055V201.026L96.8571 182.311V144.868L127.69 127.075C127.632 126.879 127.597 126.683 127.597 126.476C127.597 126.268 127.632 126.072 127.69 125.888L97.1452 108.256L96.8571 108.095V71.3322L65.6096 89.3676V164.909L34.2124 146.782C33.7974 147.196 33.2326 147.45 32.6102 147.45C31.3654 147.45 30.3511 146.436 30.3511 145.191C30.3511 144.142 31.0657 143.267 32.0339 143.013V70.6868L-0.15863 52.0982L-0.446777 51.9369V13.1692L32.0339 31.9192V31.8846L65.0333 50.9342L98.0443 31.8846V70.0069L130.156 88.5494L130.444 88.7108V124.309C131.412 124.563 132.127 125.439 132.127 126.487C132.127 127.536 131.412 128.412 130.444 128.665V164.264L98.0097 182.979V219.753L129.292 237.812V201.038L161.726 182.322V181.654L162.303 181.988L162.879 181.654V182.322L195.025 200.876L195.313 201.038V239.805L163.916 221.678C163.501 222.093 162.936 222.346 162.314 222.346C161.692 222.346 161.115 222.093 160.712 221.678L130.467 239.137V314.69L97.4564 295.64L65.5981 314.022L33.7398 332.414L65.0219 350.473L65.5981 350.139V350.807L66.1744 351.141L65.5981 351.475V388.918L33.1635 407.633V442.563C34.1317 442.817 34.8463 443.693 34.8463 444.741C34.8463 445.986 33.832 447 32.5872 447C31.3424 447 30.3281 445.986 30.3281 444.741C30.3281 444.534 30.3627 444.338 30.4203 444.154L-0.124023 426.521L-0.41217 426.36V387.592L32.0225 406.308V370.202L-1 351.118ZM31.9763 182.968L0.694336 164.909V201.015L31.9763 219.073V182.968ZM0.728882 313.342L32.0109 331.4V295.295L0.728882 277.236V313.342ZM0.728882 275.231L32.0109 257.172V221.067L0.728882 239.125V275.231ZM32.5757 258.175L1.2937 276.234L15.5054 284.439L32.5757 294.292L62.8318 276.833C62.7857 276.648 62.7396 276.452 62.7396 276.245C62.7396 276.038 62.7742 275.842 62.8318 275.657L32.5757 258.175ZM65.5866 239.137V274.055C65.9785 274.159 66.3358 274.367 66.6124 274.643L81.2161 266.207L96.8571 257.184V221.078L81.2161 230.102L65.5866 239.137ZM64.457 89.3676L33.175 71.3091V107.415L64.457 125.485V89.3676ZM64.457 162.915V126.81L33.175 108.751V143.013C34.1432 143.267 34.8578 144.142 34.8578 145.191C34.8578 145.399 34.8233 145.595 34.7657 145.779L64.457 162.915ZM31.9763 33.2215L0.694336 15.1629V51.2684L31.9763 69.327V33.2215ZM33.175 69.9838L64.457 88.0424V51.9369L33.175 33.8783V69.9838ZM96.8916 33.8783L65.6096 51.9369V88.0424L96.8571 70.0069V69.327L96.8801 69.3385V33.8783H96.8916ZM98.0097 71.3207V107.426L128.254 124.885C128.531 124.609 128.888 124.401 129.28 124.298V89.3676L98.0097 71.3207ZM129.292 163.584V128.654C128.9 128.55 128.542 128.354 128.266 128.066L98.0097 145.525V181.631L129.292 163.584ZM65.5866 201.695V237.8L81.2276 228.777L96.8685 219.753V183.648L65.5866 201.695ZM194.149 237.8V201.695L162.867 183.636V217.898C163.836 218.151 164.55 219.027 164.55 220.076C164.55 220.283 164.516 220.479 164.458 220.664L194.149 237.8ZM161.726 217.898V183.636L130.444 201.695V237.8L160.124 220.675C160.078 220.491 160.032 220.295 160.032 220.087C160.032 219.027 160.758 218.151 161.726 217.898ZM129.292 239.137L98.0097 221.078V257.184L129.292 275.242V239.137ZM129.292 276.568L98.0097 258.509V294.615L129.292 312.673V276.568ZM96.8571 294.626V258.521L81.2161 267.544L67.1772 275.646C67.2233 275.83 67.2694 276.026 67.2694 276.234C67.2694 277.282 66.5548 278.158 65.5866 278.412V312.673L96.8571 294.626ZM64.434 278.412C64.0421 278.308 63.6848 278.112 63.4081 277.824L33.1635 295.283V331.389L64.4456 313.33V278.412H64.434ZM33.152 333.394L32.5757 333.06L31.9994 333.394L1.2937 351.118L32.5757 369.177L63.8577 351.118L33.152 333.394ZM64.434 352.109L33.152 370.168V406.273L64.434 388.215V352.109ZM0.728882 389.552V425.657L30.9735 443.116C31.2502 442.84 31.6075 442.632 31.9994 442.529V407.599L0.728882 389.552ZM192.466 163.918C192.466 163.711 192.501 163.515 192.559 163.33L162.014 145.698L161.726 145.537V70.6868L131.655 53.3313C131.24 53.9075 130.571 54.2878 129.81 54.2878C128.565 54.2878 127.551 53.2737 127.551 52.029C127.551 50.9803 128.266 50.1045 129.234 49.851V13.1692L161.669 31.8846V-4.88927L195.256 -24.2731V14.5061L163.432 32.8757L194.726 50.9458L224.982 33.4865C224.936 33.3021 224.89 33.1062 224.89 32.8988C224.89 31.6542 225.904 30.64 227.149 30.64C228.394 30.64 229.408 31.6542 229.408 32.8988C229.408 33.9475 228.693 34.8233 227.725 35.0769V69.3385V107.449L259.583 125.842L290.865 107.783L259.295 89.5636L259.007 89.4022V51.9253L258.431 51.5911L259.007 51.2569V14.4945L226.861 -4.05952L226.572 -4.22086V-43L259.871 -23.7775L260.16 -23.6162V13.1577L291.442 -4.90079V-5.5692L292.018 -5.235L325.029 -24.2846V11.9707C325.421 12.0744 325.778 12.2819 326.055 12.5585L356.299 -4.88927V-42.9885L388.734 -24.2731V-24.2846L422.033 -5.06214L422.321 -4.90079V31.8731L453.603 13.8146V13.1462L454.179 13.4804L454.756 13.1462V13.8146L486.614 32.1958L519.625 13.1462V51.2684L550.907 69.327V32.5415L584.494 13.1577L616.929 -5.55768V32.553L647.139 50.0008C647.554 49.5859 648.118 49.3324 648.741 49.3324C649.986 49.3324 651 50.3465 651 51.5911C651 52.8357 649.986 53.8499 648.741 53.8499C648.107 53.8499 647.542 53.5963 647.139 53.1815L616.894 70.6407V108.751L583.595 89.529L583.307 89.3676V52.5937L552.025 70.6523V108.751L520.628 90.6238C520.351 90.9004 519.994 91.1078 519.602 91.2115V126.81L486.015 146.194V108.751L453.58 127.467V88.6992L485.438 70.3181L454.168 52.2711L421.157 71.3207V33.2099L389.875 15.1514V88.6992L422.021 107.253L422.31 107.415V146.182L390.912 128.055C390.497 128.469 389.933 128.723 389.31 128.723C388.065 128.723 387.051 127.709 387.051 126.464C387.051 125.416 387.766 124.54 388.734 124.286V89.3561L356.587 70.8021L356.299 70.6407V33.8783L325.017 51.9369V86.8669C325.985 87.1204 326.7 87.9963 326.7 89.045C326.7 89.2524 326.665 89.4483 326.608 89.6327L357.152 107.265L357.44 107.426V146.194L324.429 127.144L291.995 145.86L259.56 127.144L227.126 145.86L195.267 127.467V161.728C196.236 161.982 196.95 162.858 196.95 163.907C196.95 165.151 195.936 166.165 194.691 166.165C193.481 166.177 192.466 165.163 192.466 163.918ZM162.879 144.868L193.123 162.328C193.4 162.051 193.757 161.844 194.149 161.74V126.81L193.573 126.476L162.867 108.751V144.868H162.879ZM226.584 71.3207L195.302 89.3792V125.485L226.584 107.426V71.3207ZM194.149 89.3676L162.867 71.3091V107.415L194.149 125.473V89.3676ZM162.879 69.9838L194.161 88.0424V51.9369L162.879 33.8783V69.9838ZM130.398 15.1629V49.8394C131.366 50.093 132.081 50.9688 132.081 52.0175C132.081 52.0867 132.069 52.1558 132.058 52.225L161.669 69.3154V33.2215L130.398 15.1629ZM194.103 -22.2794L162.821 -4.22086V31.8846L194.103 13.8261V-22.2794ZM226.584 35.0653C226.192 34.9616 225.835 34.7657 225.558 34.4776L195.313 51.9369V88.0424L226.595 69.9838V35.0653H226.584ZM292.018 69.6496L323.3 51.5911L309.088 43.3858L292.018 33.5326L260.736 51.5911L274.948 59.7964L292.018 69.6496ZM323.876 16.3384C323.484 16.2347 323.127 16.0388 322.85 15.7507L293.182 32.8757L323.888 50.6V16.3384H323.876ZM292.594 31.8731L322.274 14.7365C322.228 14.5522 322.182 14.3562 322.182 14.1488C322.182 13.9414 322.216 13.7455 322.274 13.5611L292.594 -3.57551V31.8731ZM292.594 70.6523V106.758L322.274 89.6212C322.228 89.4368 322.182 89.2409 322.182 89.0334C322.182 87.9847 322.896 87.1089 323.865 86.8554V52.5937L292.594 70.6523ZM323.876 91.2231C323.484 91.1193 323.127 90.9119 322.85 90.6353L293.182 107.76L323.888 125.485V91.2231H323.876ZM260.16 88.6992L291.442 106.758V70.6523L260.16 52.5937V88.6992ZM259.007 -22.9478L227.725 -41.0063V-4.90079L259.007 13.1577V-22.9478ZM260.16 14.4945V50.6L291.442 32.5415V-3.56398L260.16 14.4945ZM293.171 -4.56659L322.839 12.5585C323.115 12.2819 323.473 12.0744 323.865 11.9707V-22.2909L293.171 -4.56659ZM357.452 -40.9948V-4.88927L388.734 13.1692V-22.9363L357.452 -40.9948ZM454.744 15.1514V51.2569L486.026 69.3154V33.2099L454.744 15.1514ZM518.449 15.1514L487.167 33.2099V69.3154L502.808 60.2919L518.449 51.2684V15.1514ZM487.179 106.758L502.82 97.7343L516.859 89.6327C516.813 89.4483 516.766 89.2524 516.766 89.045C516.766 87.9963 517.481 87.1204 518.449 86.8669V52.5937L502.808 61.6172L487.167 70.6407V106.758H487.179ZM552.036 69.3154L583.318 51.2569V15.1514L552.036 33.2099V69.3154ZM615.741 -3.56398L584.46 14.4945V50.6L615.741 32.5415V-3.56398ZM646.574 51.0034L616.318 33.5441L585.036 51.6026L599.248 59.8079L616.318 69.6612L646.574 52.1904C646.528 52.006 646.482 51.8101 646.482 51.6026C646.482 51.3952 646.516 51.1993 646.574 51.0034ZM584.46 88.6992L615.741 106.758V70.6523L584.46 52.5937V88.6992ZM550.884 106.758V70.6523L519.602 52.5937V86.8554C520.57 87.1089 521.285 87.9847 521.285 89.0334C521.285 89.2409 521.25 89.4368 521.192 89.6212L550.884 106.758ZM487.179 144.189L518.461 126.13V91.2C518.069 91.0963 517.712 90.9004 517.435 90.6123L502.831 99.048L487.19 108.072V144.189H487.179ZM454.744 125.473L486.026 107.415V71.3091L454.744 89.3676V125.473ZM422.31 69.3154L453.592 51.2684V15.1514L422.31 33.2099V69.3154ZM421.157 31.8846V-4.23239L389.875 -22.2909V13.8146L421.157 31.8846ZM357.452 -3.55246V32.5415L388.734 50.6V14.4945L357.452 -3.55246ZM421.157 144.2V108.095L389.875 90.0361V124.298C390.843 124.551 391.558 125.427 391.558 126.476C391.558 126.683 391.523 126.879 391.466 127.064L421.157 144.2ZM357.452 69.9838L388.734 88.0424V51.9369L357.452 33.8783V69.9838ZM356.299 -3.56398L326.619 13.5611C326.666 13.7455 326.712 13.9414 326.712 14.1488C326.712 15.1975 325.997 16.0734 325.029 16.3269V50.5885L356.299 32.5415V-3.56398ZM356.299 108.095L326.055 90.6353C325.778 90.9119 325.421 91.1193 325.029 91.2231V126.153L356.311 144.212V108.095H356.299ZM292.018 144.534L323.3 126.476L292.594 108.751L292.018 108.417L291.442 108.751L260.736 126.476L292.018 144.534ZM258.431 126.476L227.149 108.417L195.867 126.476L227.149 144.534L258.431 126.476Z" fill="#E8E8E8"/>
</svg>
