<svg width="950" height="950" viewBox="0 0 950 950" fill="none" xmlns="http://www.w3.org/2000/svg">
<path d="M949.891 532.959L888.724 417.37C800.639 463.999 729.077 492.349 674.804 502.091C738.05 458.855 795.496 384.422 847.8 278.137L730.5 220.233C694.828 292.586 661.455 338.996 631.254 368.551C648.434 289.192 626.549 177.325 532.665 0L417.116 61.1881C463.73 149.303 492.07 220.89 501.808 275.072C458.587 211.804 384.18 154.448 278.041 102.016L220.157 219.357C292.484 255.041 338.879 288.426 368.423 318.637C289.092 301.452 177.263 323.344 0 417.151L61.1668 532.74C149.142 486.11 220.594 457.87 274.868 448.018C211.512 491.802 154.175 566.125 102.091 671.863L219.391 729.767C254.843 657.743 288.326 611.223 318.636 581.45C301.457 660.808 323.341 772.675 417.225 950L532.775 888.812C486.161 800.807 457.93 729.329 448.082 675.037C491.851 738.415 566.148 795.772 671.85 847.874L729.734 730.534C657.734 695.069 611.23 661.683 581.467 631.363C597.552 634.866 614.841 636.727 633.88 636.727C708.725 636.727 808.627 607.61 950 532.74L949.891 532.959Z" fill="#FEFBF3"/>
</svg>
