<svg width="32" height="32" viewBox="0 0 32 32" fill="none" xmlns="http://www.w3.org/2000/svg">
<path d="M30.0001 16C30.0095 19.1222 28.9749 22.158 27.0608 24.6247C25.1466 27.0914 22.4629 28.8475 19.4361 29.6137C16.4094 30.38 13.2133 30.1125 10.356 28.8538C7.49875 27.595 5.14425 25.4172 3.66681 22.6667C2.77525 21.0166 2.23074 19.2016 2.06681 17.3333C2.06681 16.92 2.06681 16.52 2.06681 16.1067C2.05276 14.2648 2.4023 12.4383 3.0954 10.7317C3.78851 9.02519 4.81155 7.47219 6.10591 6.16173C7.40026 4.85127 8.94049 3.80911 10.6383 3.09496C12.3362 2.38081 14.1582 2.00872 16.0001 2C16.4135 2 16.8135 2 17.2268 2C19.0951 2.16393 20.9101 2.70843 22.5601 3.6C24.8152 4.78942 26.7011 6.57422 28.0128 8.76041C29.3245 10.9466 30.0119 13.4505 30.0001 16Z" stroke="#EDA708" stroke-width="2" stroke-miterlimit="10"/>
<path d="M22.668 3.65332C23.7721 5.70068 24.3409 7.99394 24.3213 10.32C24.3161 12.159 23.9482 13.9789 23.2388 15.6756C22.5294 17.3723 21.4923 18.9124 20.187 20.2078C18.8817 21.5032 17.3337 22.5285 15.6317 23.225C13.9296 23.9215 12.107 24.2754 10.268 24.2667C7.96904 24.2914 5.70034 23.7414 3.66797 22.6667" stroke="#EDA708" stroke-width="2" stroke-miterlimit="10"/>
<path d="M17.228 2.05371C17.228 2.45371 17.228 2.86704 17.228 3.26704C17.2386 5.10828 16.8854 6.93347 16.1889 8.63792C15.4924 10.3424 14.4662 11.8925 13.1692 13.1994C11.8722 14.5063 10.3299 15.5443 8.63083 16.2538C6.93174 16.9632 5.10928 17.3302 3.26802 17.3337C2.86802 17.3337 2.45469 17.3337 2.05469 17.3337" stroke="#EDA708" stroke-width="2" stroke-miterlimit="10"/>
</svg>
