<svg width="40" height="40" viewBox="0 0 40 40" fill="none" xmlns="http://www.w3.org/2000/svg">
<path d="M20.5 20.3666C21.3893 19.5969 22.1026 18.6448 22.5914 17.575C23.0803 16.5052 23.3333 15.3428 23.3333 14.1666C23.3333 11.9565 22.4553 9.83689 20.8925 8.27409C19.3297 6.71129 17.2101 5.83331 15 5.83331C12.7899 5.83331 10.6702 6.71129 9.10743 8.27409C7.54463 9.83689 6.66666 11.9565 6.66666 14.1666C6.66664 15.3428 6.91966 16.5052 7.40853 17.575C7.89741 18.6448 8.61069 19.5969 9.49999 20.3666C7.16689 21.4231 5.18743 23.1292 3.79829 25.2809C2.40915 27.4326 1.66911 29.9388 1.66666 32.5C1.66666 32.942 1.84225 33.3659 2.15481 33.6785C2.46737 33.9911 2.8913 34.1666 3.33332 34.1666C3.77535 34.1666 4.19927 33.9911 4.51183 33.6785C4.8244 33.3659 4.99999 32.942 4.99999 32.5C4.99999 29.8478 6.05356 27.3043 7.92892 25.4289C9.80429 23.5536 12.3478 22.5 15 22.5C17.6522 22.5 20.1957 23.5536 22.0711 25.4289C23.9464 27.3043 25 29.8478 25 32.5C25 32.942 25.1756 33.3659 25.4881 33.6785C25.8007 33.9911 26.2246 34.1666 26.6667 34.1666C27.1087 34.1666 27.5326 33.9911 27.8452 33.6785C28.1577 33.3659 28.3333 32.942 28.3333 32.5C28.3309 29.9388 27.5908 27.4326 26.2017 25.2809C24.8125 23.1292 22.8331 21.4231 20.5 20.3666V20.3666ZM15 19.1666C14.0111 19.1666 13.0444 18.8734 12.2221 18.324C11.3999 17.7746 10.759 16.9937 10.3806 16.0801C10.0022 15.1664 9.90314 14.1611 10.0961 13.1912C10.289 12.2213 10.7652 11.3304 11.4645 10.6311C12.1637 9.93185 13.0546 9.45565 14.0245 9.26272C14.9944 9.06979 15.9998 9.16881 16.9134 9.54725C17.827 9.92569 18.6079 10.5666 19.1573 11.3888C19.7067 12.211 20 13.1777 20 14.1666C20 15.4927 19.4732 16.7645 18.5355 17.7022C17.5978 18.6399 16.3261 19.1666 15 19.1666ZM31.2333 19.7C32.2999 18.4989 32.9967 17.0151 33.2397 15.4272C33.4826 13.8394 33.2615 12.2151 32.6029 10.75C31.9443 9.28486 30.8763 8.04131 29.5274 7.16902C28.1786 6.29673 26.6063 5.83288 25 5.83331C24.558 5.83331 24.134 6.00891 23.8215 6.32147C23.5089 6.63403 23.3333 7.05795 23.3333 7.49998C23.3333 7.94201 23.5089 8.36593 23.8215 8.67849C24.134 8.99105 24.558 9.16665 25 9.16665C26.3261 9.16665 27.5978 9.69343 28.5355 10.6311C29.4732 11.5688 30 12.8406 30 14.1666C29.9976 15.042 29.7655 15.9015 29.3268 16.659C28.888 17.4165 28.2581 18.0456 27.5 18.4833C27.2529 18.6258 27.0465 18.8294 26.9006 19.0745C26.7547 19.3197 26.6741 19.5981 26.6667 19.8833C26.6597 20.1663 26.7249 20.4463 26.8561 20.6971C26.9873 20.9478 27.1802 21.1611 27.4167 21.3166L28.0667 21.75L28.2833 21.8666C30.2923 22.8195 31.9872 24.3266 33.1683 26.2105C34.3494 28.0944 34.9676 30.2765 34.95 32.5C34.95 32.942 35.1256 33.3659 35.4381 33.6785C35.7507 33.9911 36.1746 34.1666 36.6167 34.1666C37.0587 34.1666 37.4826 33.9911 37.7952 33.6785C38.1077 33.3659 38.2833 32.942 38.2833 32.5C38.2969 29.9424 37.6564 27.4237 36.4224 25.1834C35.1885 22.9431 33.4022 21.0555 31.2333 19.7V19.7Z" fill="#EDA708"/>
</svg>
